<svg width="48" height="48" viewBox="0 0 48 48" fill="none" xmlns="http://www.w3.org/2000/svg">
<path d="M13.2702 35.035C10.9728 32.7376 10.9728 29.0026 13.2702 26.7053L18.6442 21.3312L16.0915 18.7786L10.7175 24.1526C7.00945 27.8607 7.00945 33.8796 10.7175 37.5876C14.4256 41.2957 20.4445 41.2957 24.1525 37.5876L29.5266 32.2136L26.9739 29.661L21.5999 35.035C19.3025 37.3324 15.5676 37.3324 13.2702 35.035ZM20.122 30.8701L30.8701 20.1221L28.1831 17.4351L17.435 28.1831L20.122 30.8701ZM24.1525 10.7176L18.7785 16.0916L21.3312 18.6442L26.7052 13.2702C29.0026 10.9728 32.7375 10.9728 35.0349 13.2702C37.3323 15.5676 37.3323 19.3026 35.0349 21.5999L29.6609 26.974L32.2136 29.5266L37.5876 24.1526C41.2956 20.4445 41.2956 14.4256 37.5876 10.7176C33.8795 7.00951 27.8606 7.00951 24.1525 10.7176Z" fill="white" fill-opacity="0.95"/>
</svg>
