<svg width="43" height="43" viewBox="0 0 43 43" fill="none" xmlns="http://www.w3.org/2000/svg">
<g clip-path="url(#clip0)">
<path d="M42.1691 20.6527L42.1649 20.5232C42.1407 19.7588 41.5457 19.1344 40.7824 19.0733C36.3822 18.7206 32.9823 15.1249 32.8718 10.7079C32.8528 9.9308 32.2432 9.29589 31.4672 9.24534C27.2639 8.97264 23.8998 5.7349 23.4671 1.54743C23.3902 0.80407 22.7785 0.230228 22.032 0.200746C21.7498 0.189164 21.4665 0.179688 21.1812 0.179688C9.60116 0.179688 0.180664 9.60018 0.180664 21.1802C0.180664 32.7603 9.60116 42.1807 21.1812 42.1807C32.7612 42.1807 42.1817 32.7603 42.1817 21.1802C42.1807 21.0033 42.1754 20.8275 42.1691 20.6527ZM23.5934 21.1191C23.5934 22.4616 22.5058 23.5493 21.1633 23.5493C19.8208 23.5493 18.7331 22.4616 18.7331 21.1191C18.7331 19.7767 19.8208 18.689 21.1633 18.689C22.5058 18.689 23.5934 19.7767 23.5934 21.1191ZM18.1804 12.203C18.1804 13.5455 17.0927 14.6331 15.7502 14.6331C14.4077 14.6331 13.3201 13.5455 13.3201 12.203C13.3201 10.8605 14.4077 9.77286 15.7502 9.77286C17.0927 9.77181 18.1804 10.8605 18.1804 12.203ZM10.8078 20.1894C12.1503 20.1894 13.2379 21.2771 13.2379 22.6196C13.2379 23.962 12.1503 25.0497 10.8078 25.0497C9.46533 25.0497 8.37766 23.962 8.37766 22.6196C8.37766 21.2781 9.46533 20.1894 10.8078 20.1894ZM18.1804 31.6336C18.1804 30.2911 19.268 29.2035 20.6105 29.2035C21.953 29.2035 23.0407 30.2911 23.0407 31.6336C23.0407 32.9761 21.953 34.0638 20.6105 34.0638C19.268 34.0638 18.1804 32.9761 18.1804 31.6336ZM30.6291 23.1966C31.9715 23.1966 33.0592 24.2842 33.0592 25.6267C33.0592 26.9692 31.9715 28.0568 30.6291 28.0568C29.2866 28.0568 28.1989 26.9692 28.1989 25.6267C28.1989 24.2842 29.2866 23.1966 30.6291 23.1966Z" fill="#FF7134"/>
</g>
<defs>
<clipPath id="clip0">
<rect width="42" height="42" fill="white" transform="translate(0.180664 0.179688)"/>
</clipPath>
</defs>
</svg>
