<svg width="45" height="45" viewBox="0 0 45 45" fill="none" xmlns="http://www.w3.org/2000/svg">
<g clip-path="url(#clip0)">
<path d="M35.3139 21.7716L35.3114 21.6925C35.2966 21.2255 34.9331 20.844 34.4667 20.8067C31.7785 20.5912 29.7013 18.3944 29.6338 15.6958C29.6222 15.2211 29.2497 14.8332 28.7756 14.8023C26.2077 14.6357 24.1524 12.6576 23.888 10.0993C23.841 9.64514 23.4673 9.29455 23.0112 9.27654C22.8388 9.26946 22.6658 9.26367 22.4914 9.26367C15.4166 9.26367 9.66119 15.0191 9.66119 22.0939C9.66119 29.1687 15.4166 34.9241 22.4914 34.9241C29.5662 34.9241 35.3217 29.1687 35.3217 22.0939C35.321 21.9858 35.3178 21.8784 35.3139 21.7716ZM23.9652 22.0566C23.9652 22.8768 23.3007 23.5413 22.4805 23.5413C21.6603 23.5413 20.9958 22.8768 20.9958 22.0566C20.9958 21.2364 21.6603 20.5719 22.4805 20.5719C23.3007 20.5719 23.9652 21.2364 23.9652 22.0566ZM20.6581 16.6093C20.6581 17.4295 19.9936 18.094 19.1734 18.094C18.3532 18.094 17.6887 17.4295 17.6887 16.6093C17.6887 15.7891 18.3532 15.1246 19.1734 15.1246C19.9936 15.124 20.6581 15.7891 20.6581 16.6093ZM16.1538 21.4886C16.974 21.4886 17.6385 22.1531 17.6385 22.9733C17.6385 23.7935 16.974 24.458 16.1538 24.458C15.3336 24.458 14.6691 23.7935 14.6691 22.9733C14.6691 22.1537 15.3336 21.4886 16.1538 21.4886ZM20.6581 28.4804C20.6581 27.6602 21.3226 26.9957 22.1428 26.9957C22.963 26.9957 23.6275 27.6602 23.6275 28.4804C23.6275 29.3006 22.963 29.9651 22.1428 29.9651C21.3226 29.9651 20.6581 29.3006 20.6581 28.4804ZM28.2636 23.3258C29.0838 23.3258 29.7483 23.9903 29.7483 24.8105C29.7483 25.6307 29.0838 26.2952 28.2636 26.2952C27.4434 26.2952 26.7789 25.6307 26.7789 24.8105C26.7789 23.9903 27.4434 23.3258 28.2636 23.3258Z" fill="#F2F2F2"/>
</g>
<defs>
<clipPath id="clip0">
<rect width="25.6598" height="25.6598" fill="white" transform="translate(9.66119 9.26367)"/>
</clipPath>
</defs>
</svg>
