<svg width="40" height="40" viewBox="0 0 40 40" fill="none" xmlns="http://www.w3.org/2000/svg">
<g clip-path="url(#clip0)">
<path d="M39.989 19.4981L39.985 19.3748C39.9619 18.6467 39.3953 18.0521 38.6683 17.9939C34.4777 17.658 31.2397 14.2335 31.1344 10.0268C31.1163 9.28677 30.5357 8.68209 29.7967 8.63396C25.7936 8.37424 22.5897 5.29068 22.1775 1.30261C22.1043 0.59465 21.5217 0.0481336 20.8107 0.0200557C20.542 0.00902504 20.2723 0 20.0005 0C8.9719 0 0 8.9719 0 20.0005C0 31.0291 8.9719 40.001 20.0005 40.001C31.0291 40.001 40.001 31.0291 40.001 20.0005C40 19.832 39.995 19.6646 39.989 19.4981ZM22.2979 19.9423C22.2979 21.2209 21.262 22.2568 19.9835 22.2568C18.7049 22.2568 17.669 21.2209 17.669 19.9423C17.669 18.6638 18.7049 17.6279 19.9835 17.6279C21.262 17.6279 22.2979 18.6638 22.2979 19.9423ZM17.1426 11.4508C17.1426 12.7293 16.1067 13.7652 14.8281 13.7652C13.5496 13.7652 12.5137 12.7293 12.5137 11.4508C12.5137 10.1722 13.5496 9.13635 14.8281 9.13635C16.1067 9.13535 17.1426 10.1722 17.1426 11.4508ZM10.1211 19.0569C11.3996 19.0569 12.4355 20.0928 12.4355 21.3713C12.4355 22.6499 11.3996 23.6857 10.1211 23.6857C8.84254 23.6857 7.80666 22.6499 7.80666 21.3713C7.80666 20.0938 8.84254 19.0569 10.1211 19.0569ZM17.1426 29.9561C17.1426 28.6776 18.1784 27.6417 19.457 27.6417C20.7355 27.6417 21.7714 28.6776 21.7714 29.9561C21.7714 31.2347 20.7355 32.2705 19.457 32.2705C18.1784 32.2705 17.1426 31.2347 17.1426 29.9561ZM28.9985 21.9208C30.277 21.9208 31.3129 22.9567 31.3129 24.2353C31.3129 25.5138 30.277 26.5497 28.9985 26.5497C27.7199 26.5497 26.684 25.5138 26.684 24.2353C26.684 22.9567 27.7199 21.9208 28.9985 21.9208Z" fill="white"/>
</g>
<defs>
<clipPath id="clip0">
<rect width="40" height="40" fill="white"/>
</clipPath>
</defs>
</svg>
