<svg width="35" height="35" viewBox="0 0 35 35" fill="none" xmlns="http://www.w3.org/2000/svg">
<path d="M17.502 35C7.85043 35 0 27.1504 0 17.5C0 7.84955 7.85043 0 17.502 0C17.7408 0 17.9757 0.00782998 18.2106 0.0195749C18.8332 0.0430649 19.3422 0.524608 19.4049 1.14318C19.7651 4.63143 22.5685 7.32886 26.0728 7.55593C26.7189 7.59899 27.2279 8.12752 27.2435 8.77349C27.3375 12.4536 30.1684 15.4525 33.8371 15.7461C34.4714 15.797 34.9687 16.3177 34.9883 16.9558L34.9922 17.0654C34.9961 17.2103 35 17.3591 35 17.5039C35.0039 27.1504 27.1535 35 17.502 35ZM17.0948 2.50951C9.01331 2.72483 2.50587 9.36857 2.50587 17.5C2.50587 25.7685 9.23258 32.4944 17.502 32.4944C25.5756 32.4944 32.1809 26.0817 32.4863 18.0794C28.4612 17.269 25.3837 14 24.8277 9.9245C20.9828 9.23937 17.9366 6.31879 17.0948 2.50951Z" fill="#222222"/>
</svg>
