<svg width="548" height="112" viewBox="0 0 548 112" fill="none" xmlns="http://www.w3.org/2000/svg">
<rect width="548" height="92" rx="14" transform="matrix(-1 0 0 1 548 0)" fill="#222222"/>
<path d="M418.268 109C419.038 110.333 420.962 110.333 421.732 109L431.258 92.5C432.028 91.1667 431.066 89.5 429.526 89.5L410.474 89.5C408.934 89.5 407.972 91.1667 408.742 92.5L418.268 109Z" fill="#222222"/>
<path d="M95.5616 43.26H92.8816V36.32H90.2416V54.74H92.8816V45.44H95.5616V43.26ZM87.2816 40.12H88.8616V38H78.7016V40.12H80.2816V48.36H78.2216L78.5016 50.52C81.6416 50.52 85.8216 50.42 89.5616 49.78L89.4016 47.86C88.7016 47.96 88.0016 48 87.2816 48.06V40.12ZM82.8416 40.12H84.7416V48.24C84.1016 48.26 83.4616 48.28 82.8416 48.3V40.12ZM111.76 36.3H109.1V47.16H111.76V36.3ZM97.7 37.38V39.48H103.52C103.46 39.96 103.38 40.4 103.24 40.86L96.78 41.06L97.14 43.12L102.1 42.74C101.04 43.94 99.36 44.86 96.78 45.58L97.76 47.66C103.9 45.84 106.34 42.56 106.34 37.38H97.7ZM105.54 47.46C101.68 47.46 99.26 48.8 99.26 51.1C99.26 53.38 101.68 54.74 105.54 54.74C109.42 54.74 111.84 53.38 111.84 51.1C111.84 48.8 109.42 47.46 105.54 47.46ZM105.54 52.7C103.12 52.7 101.88 52.22 101.88 51.1C101.88 49.98 103.12 49.52 105.54 49.52C107.96 49.52 109.22 49.98 109.22 51.1C109.22 52.16 108 52.7 105.54 52.7ZM134.37 38.22H128.23V36.28H125.59V38.22H119.39V40.28H134.37V38.22ZM120.61 44.18C120.61 46.2 122.97 47.34 126.91 47.34C130.85 47.34 133.23 46.2 133.23 44.18C133.23 42.16 130.85 41 126.91 41C122.97 41 120.61 42.16 120.61 44.18ZM130.49 44.18C130.49 44.98 129.29 45.38 126.91 45.38C124.53 45.38 123.35 44.98 123.35 44.18C123.35 43.32 124.49 42.96 126.91 42.96C129.33 42.96 130.49 43.32 130.49 44.18ZM135.27 48.22H118.59V50.34H125.59V54.74H128.23V50.34H135.27V48.22ZM136.108 54.64H138.368L139.848 50.46H136.928L136.108 54.64ZM156.082 38.24H151.962V36.28H149.302V38.24H145.222V40.3H156.062L156.082 38.24ZM159.722 41.92V36.3H157.082V50.08H159.722V44.1H162.162V41.92H159.722ZM155.162 44.5C155.162 42.42 153.262 40.96 150.642 40.96C147.982 40.96 146.122 42.42 146.122 44.5C146.122 46.62 147.982 48.06 150.642 48.06C153.262 48.06 155.162 46.62 155.162 44.5ZM148.642 44.5C148.642 43.48 149.442 42.96 150.642 42.96C151.842 42.96 152.642 43.48 152.642 44.5C152.642 45.52 151.842 46.06 150.642 46.06C149.442 46.06 148.642 45.52 148.642 44.5ZM150.482 49.06H147.842V54.4H160.382V52.3H150.482V49.06ZM176.831 43.32H180.111V49.9H182.751V36.32H180.111V41.2H176.831V37.54H174.251V40.32H170.751V37.52H168.131V47.04H176.831V43.32ZM174.251 44.94H170.751V42.34H174.251V44.94ZM173.231 52.3V48.58H170.591V54.4H183.151V52.3H173.231ZM194.99 50.48V46.64H200.25V44.52H189.95V39.68H200.11V37.56H187.29V46.64H192.35V50.48H185.35V52.64H202.03V50.48H194.99ZM221.88 43.38C222.2 41.52 222.2 40.02 222.2 38.58V36.94H209.54V38.98H219.6C219.6 39.32 219.6 39.66 219.58 40.04L209.02 40.28L209.3 42.3L219.46 41.86C219.4 42.36 219.32 42.84 219.24 43.38H207.52V45.46H224.1V43.38H221.88ZM211.94 51.42H222.32V46.56H209.3V48.54H219.7V49.54H209.34V54.52H222.92V52.52H211.94V51.42ZM238.118 36.32V47.62H240.778V36.32H238.118ZM236.598 44.22C234.198 44.64 232.058 44.74 229.018 44.74V42.98H234.878V37.32H226.398V39.42H232.278V41.02H226.418V46.86H228.038C231.718 46.86 234.158 46.76 236.898 46.34L236.598 44.22ZM228.218 50.54H238.118V54.76H240.778V48.44H228.218V50.54ZM256.196 36.3V54.76H258.836V36.3H256.196ZM250.836 45.88H254.356V43.76H247.376V40.04H254.236V37.94H244.736V45.88H248.196V48.94C246.576 49 244.996 48.98 243.556 48.98L243.876 51.14C247.296 51.14 251.416 51.12 255.356 50.48L255.196 48.56C253.756 48.7 252.356 48.8 250.836 48.88V45.88ZM274.095 36.3V54.72H276.735V36.3H274.095ZM268.595 40.24H272.395V38.06H262.075V40.24H265.915V41.26C265.915 44.4 264.435 47.78 261.335 49.16L262.835 51.26C264.995 50.28 266.475 48.28 267.295 45.86C268.115 48.12 269.555 49.86 271.715 50.8L273.155 48.72C270.075 47.44 268.595 44.26 268.595 41.26V40.24ZM298.105 40.1V36.3H295.465V45.38H298.105V42.28H300.545V40.1H298.105ZM293.545 41.5C293.545 38.98 291.445 37.18 288.645 37.18C285.845 37.18 283.745 38.98 283.745 41.5C283.745 44 285.845 45.8 288.645 45.8C291.445 45.8 293.545 44 293.545 41.5ZM286.285 41.5C286.285 40.14 287.285 39.34 288.645 39.34C290.005 39.34 291.005 40.14 291.005 41.5C291.005 42.86 290.005 43.64 288.645 43.64C287.285 43.64 286.285 42.86 286.285 41.5ZM296.285 45.9H293.725V47.2H290.365V49.1H299.585V47.2H296.285V45.9ZM287.785 47.14H285.225V54.26H286.245C288.065 54.26 289.485 54.18 291.005 53.64L290.645 51.56C289.705 51.86 288.765 52.02 287.785 52.1V47.14ZM294.965 49.56C292.865 49.56 291.405 50.54 291.405 52.14C291.405 53.74 292.865 54.74 294.965 54.74C297.065 54.74 298.525 53.74 298.525 52.14C298.525 50.54 297.065 49.56 294.965 49.56ZM294.965 52.96C294.265 52.96 293.745 52.7 293.745 52.14C293.745 51.6 294.265 51.34 294.965 51.34C295.685 51.34 296.185 51.6 296.185 52.14C296.185 52.7 295.685 52.96 294.965 52.96ZM309.923 44.44C313.943 44.44 316.603 42.98 316.603 40.64C316.603 38.3 313.943 36.84 309.923 36.84C305.923 36.84 303.263 38.3 303.263 40.64C303.263 42.98 305.923 44.44 309.923 44.44ZM309.923 38.92C312.423 38.92 313.883 39.52 313.883 40.64C313.883 41.78 312.423 42.34 309.923 42.34C307.423 42.34 305.983 41.78 305.983 40.64C305.983 39.52 307.423 38.92 309.923 38.92ZM301.603 45.7V47.8H318.243V45.7H301.603ZM306.263 49.04H303.623V54.4H316.383V52.3H306.263V49.04ZM325.133 40.66L325.433 42.84L335.733 42.38C335.653 43.08 335.533 43.8 335.373 44.62L337.973 44.8C338.473 42.4 338.493 40.56 338.493 38.74V37H325.613V39.1H335.873C335.873 39.56 335.873 39.98 335.853 40.44L325.133 40.66ZM332.553 45.74V43.5H329.913V45.74H323.773V47.82H340.353V45.74H332.553ZM328.333 48.98H325.693V54.46H338.793V52.34H328.333V48.98ZM357.431 36.3H354.931V50.06H357.431V36.3ZM351.311 49.66H353.771V36.66H351.311V41.32H349.511V43.42H351.311V49.66ZM350.031 45.02C348.411 45.34 346.911 45.42 344.991 45.42V43.56H348.731V41.58H344.991V39.8H349.371V37.72H342.451V47.5H343.711C346.431 47.5 348.171 47.46 350.251 47.08L350.031 45.02ZM347.811 52.3V48.6H345.171V54.4H357.891V52.3H347.811ZM361.27 48.08C364.69 47.6 366.85 46.14 368.07 44.14C369.29 46.14 371.45 47.6 374.87 48.08L375.83 45.94C371.69 45.36 369.59 43.12 369.43 40.94H374.97V38.84H369.39V36.58H366.75V38.84H361.17V40.94H366.71C366.55 43.12 364.45 45.36 360.29 45.94L361.27 48.08ZM359.73 50.46V52.6H376.41V50.46H359.73ZM392.228 41.26H381.728V38.46H392.048V37.14H380.088V42.58H392.228V41.26ZM377.928 44.02V45.36H394.168V44.02H377.928ZM381.528 51.14H392.068V46.92H379.868V48.2H390.448V49.92H379.928V54.26H392.608V52.98H381.528V51.14ZM404.026 43.06C407.966 43.06 410.326 41.98 410.326 39.96C410.326 37.94 407.966 36.84 404.026 36.84C400.086 36.84 397.726 37.94 397.726 39.96C397.726 41.98 400.086 43.06 404.026 43.06ZM404.026 38.08C407.006 38.08 408.646 38.76 408.646 39.96C408.646 41.16 407.006 41.84 404.026 41.84C401.046 41.84 399.406 41.16 399.406 39.96C399.406 38.76 401.046 38.08 404.026 38.08ZM395.906 44.28V45.6H412.146V44.28H395.906ZM399.526 51.18H410.066V47.14H397.866V48.38H408.446V49.98H397.926V54.28H410.606V53H399.526V51.18ZM429.678 50.96V46.7H432.718V45.38H429.958V39.52H432.738V38.2H419.438V39.52H422.217V45.38H419.478V46.7H422.498V50.96H417.978V52.3H434.258V50.96H429.678ZM423.858 39.52H428.318V45.38H423.858V39.52ZM424.138 46.7H428.038V50.96H424.138V46.7ZM449.036 36.54V54.52H450.676V36.54H449.036ZM442.356 38.1H440.736V41.32C440.736 44.76 438.536 48.14 435.916 49.42L436.916 50.76C439.016 49.64 440.736 47.48 441.556 44.74C442.416 47.32 444.096 49.4 446.176 50.42L447.156 49.1C444.516 47.92 442.356 44.6 442.356 41.32V38.1ZM464.634 38.38H460.154V36.36H458.514V38.38H454.054V39.7H464.634V38.38ZM470.574 41.1H467.914V36.54H466.274V46.96H467.914V42.48H470.574V41.1ZM463.634 43.68C463.634 41.78 461.894 40.56 459.334 40.56C456.774 40.56 455.054 41.78 455.054 43.68C455.054 45.6 456.774 46.82 459.334 46.82C461.894 46.82 463.634 45.6 463.634 43.68ZM456.614 43.68C456.614 42.48 457.654 41.78 459.334 41.78C461.014 41.78 462.074 42.48 462.074 43.68C462.074 44.88 461.014 45.58 459.334 45.58C457.654 45.58 456.614 44.88 456.614 43.68ZM466.294 49.66H458.254V47.76H456.634V54.24H467.914V47.76H466.294V49.66ZM466.294 52.92H458.254V50.94H466.294V52.92ZM485.053 36.54V54.46H486.693V36.54H485.053ZM474.753 38.28H473.113V49.84H474.593C477.473 49.84 480.253 49.64 483.393 49L483.213 47.6C480.233 48.22 477.493 48.44 474.753 48.44V38.28ZM506.751 43.62H503.791V36.54H502.151V54.52H503.791V44.98H506.751V43.62ZM492.391 39.62H499.091V38.26H490.751V50.04H492.171C495.531 50.04 497.931 49.94 500.651 49.4L500.471 48.04C497.891 48.52 495.591 48.64 492.391 48.64V39.62ZM507.77 53.28H509.59V51.4H507.77V53.28Z" fill="white"/>
<g clip-path="url(#clip0)">
<path d="M66.9156 45.7716L66.913 45.6925C66.8982 45.2255 66.5347 44.844 66.0684 44.8067C63.3801 44.5912 61.3029 42.3944 61.2354 39.6958C61.2238 39.2211 60.8514 38.8332 60.3773 38.8023C57.8093 38.6357 55.754 36.6576 55.4896 34.0993C55.4427 33.6451 55.0689 33.2945 54.6128 33.2765C54.4404 33.2695 54.2674 33.2637 54.0931 33.2637C47.0182 33.2637 41.2628 39.0191 41.2628 46.0939C41.2628 53.1687 47.0182 58.9241 54.0931 58.9241C61.1679 58.9241 66.9233 53.1687 66.9233 46.0939C66.9226 45.9858 66.9194 45.8784 66.9156 45.7716ZM55.5668 46.0566C55.5668 46.8768 54.9023 47.5413 54.0821 47.5413C53.2619 47.5413 52.5974 46.8768 52.5974 46.0566C52.5974 45.2364 53.2619 44.5719 54.0821 44.5719C54.9023 44.5719 55.5668 45.2364 55.5668 46.0566ZM52.2597 40.6093C52.2597 41.4295 51.5952 42.094 50.775 42.094C49.9548 42.094 49.2903 41.4295 49.2903 40.6093C49.2903 39.7891 49.9548 39.1246 50.775 39.1246C51.5952 39.124 52.2597 39.7891 52.2597 40.6093ZM47.7554 45.4886C48.5756 45.4886 49.2401 46.1531 49.2401 46.9733C49.2401 47.7935 48.5756 48.458 47.7554 48.458C46.9353 48.458 46.2708 47.7935 46.2708 46.9733C46.2708 46.1537 46.9353 45.4886 47.7554 45.4886ZM52.2597 52.4804C52.2597 51.6602 52.9242 50.9957 53.7444 50.9957C54.5646 50.9957 55.2291 51.6602 55.2291 52.4804C55.2291 53.3006 54.5646 53.9651 53.7444 53.9651C52.9242 53.9651 52.2597 53.3006 52.2597 52.4804ZM59.8652 47.3258C60.6854 47.3258 61.3499 47.9903 61.3499 48.8105C61.3499 49.6307 60.6854 50.2952 59.8652 50.2952C59.045 50.2952 58.3805 49.6307 58.3805 48.8105C58.3805 47.9903 59.045 47.3258 59.8652 47.3258Z" fill="#F2F2F2"/>
</g>
<defs>
<clipPath id="clip0">
<rect width="25.6598" height="25.6598" fill="white" transform="translate(41.2628 33.2637)"/>
</clipPath>
</defs>
</svg>
