<svg width="21" height="22" viewBox="0 0 21 22" fill="none" xmlns="http://www.w3.org/2000/svg">
<path d="M10.4797 21.0093C4.70062 21.0093 0 16.2975 0 10.5047C0 4.71182 4.70062 0 10.4797 0C10.6227 0 10.7634 0.00470007 10.904 0.0117502C11.2768 0.0258504 11.5816 0.314905 11.6191 0.686211C11.8348 2.78009 13.5134 4.39927 15.6117 4.53557C15.9985 4.56142 16.3033 4.87868 16.3127 5.26643C16.3689 7.47547 18.064 9.27559 20.2607 9.45185C20.6405 9.4824 20.9383 9.79495 20.95 10.178L20.9523 10.2438C20.9547 10.3308 20.957 10.4201 20.957 10.507C20.9594 16.2975 16.2588 21.0093 10.4797 21.0093ZM10.2359 1.50637C5.39692 1.63563 1.50045 5.62364 1.50045 10.5047C1.50045 15.4679 5.52821 19.5053 10.4797 19.5053C15.3139 19.5053 19.269 15.6559 19.4519 10.8525C17.0418 10.366 15.1991 8.40373 14.8662 5.95734C12.5639 5.54609 10.7399 3.79296 10.2359 1.50637Z" fill="#222222"/>
<path d="M7.72722 7.22828C8.39663 7.22828 8.9393 6.68432 8.9393 6.01331C8.9393 5.3423 8.39663 4.79834 7.72722 4.79834C7.0578 4.79834 6.51514 5.3423 6.51514 6.01331C6.51514 6.68432 7.0578 7.22828 7.72722 7.22828Z" fill="#222222"/>
<path d="M10.4704 11.6892C11.1398 11.6892 11.6825 11.1453 11.6825 10.4742C11.6825 9.80324 11.1398 9.25928 10.4704 9.25928C9.80097 9.25928 9.2583 9.80324 9.2583 10.4742C9.2583 11.1453 9.80097 11.6892 10.4704 11.6892Z" fill="#222222"/>
<path d="M10.6205 16.906C11.2899 16.906 11.8326 16.3621 11.8326 15.691C11.8326 15.02 11.2899 14.4761 10.6205 14.4761C9.95111 14.4761 9.40845 15.02 9.40845 15.691C9.40845 16.3621 9.95111 16.906 10.6205 16.906Z" fill="#222222"/>
<path d="M5.30314 12.4385C5.97256 12.4385 6.51523 11.8945 6.51523 11.2235C6.51523 10.5525 5.97256 10.0085 5.30314 10.0085C4.63373 10.0085 4.09106 10.5525 4.09106 11.2235C4.09106 11.8945 4.63373 12.4385 5.30314 12.4385Z" fill="#222222"/>
<path d="M15.1945 13.9426C15.8639 13.9426 16.4066 13.3987 16.4066 12.7277C16.4066 12.0567 15.8639 11.5127 15.1945 11.5127C14.5251 11.5127 13.9824 12.0567 13.9824 12.7277C13.9824 13.3987 14.5251 13.9426 15.1945 13.9426Z" fill="#222222"/>
</svg>
