<svg width="22" height="22" viewBox="0 0 22 22" fill="none" xmlns="http://www.w3.org/2000/svg">
<path d="M0 17.6739V21.389C0 21.7311 0.268852 22 0.611028 22H4.32608C4.48495 22 4.64381 21.9389 4.7538 21.8167L18.0987 8.48406L13.5159 3.90135L0.183309 17.234C0.0611029 17.3562 0 17.5028 0 17.6739ZM21.6426 4.94009C21.7559 4.82704 21.8458 4.69275 21.9071 4.54491C21.9684 4.39707 22 4.2386 22 4.07854C22 3.91849 21.9684 3.76001 21.9071 3.61218C21.8458 3.46434 21.7559 3.33005 21.6426 3.217L18.783 0.357383C18.67 0.244094 18.5357 0.154215 18.3878 0.0928902C18.24 0.0315657 18.0815 0 17.9215 0C17.7614 0 17.6029 0.0315657 17.4551 0.0928902C17.3073 0.154215 17.173 0.244094 17.0599 0.357383L14.8235 2.59375L19.4063 7.17646L21.6426 4.94009Z" fill="#FF7134"/>
</svg>
