<svg width="40" height="40" viewBox="0 0 40 40" fill="none" xmlns="http://www.w3.org/2000/svg">
<path d="M20.1865 35.039C11.9822 35.039 5.33301 28.3899 5.33301 20.1855C5.33301 11.9812 11.9822 5.33203 20.1865 5.33203C28.3908 5.33203 35.04 11.9812 35.04 20.1855C35.0321 28.3899 28.3908 35.0311 20.1865 35.039ZM20.1865 7.84729C13.3707 7.84729 7.84827 13.3697 7.84827 20.1855C7.84827 27.0013 13.3707 32.5238 20.1865 32.5238C27.0023 32.5238 32.5247 27.0013 32.5247 20.1855C32.5168 13.3777 26.9944 7.85522 20.1865 7.84729Z" fill="#C2C2C2"/>
<path d="M19.8056 24.2719C19.1074 24.2719 18.5441 23.7086 18.5441 23.0104C18.5361 21.0743 19.7977 19.3684 21.6465 18.7971C22.4399 18.5511 22.9874 17.8132 22.9795 16.988C22.9795 15.4408 21.7258 14.1871 20.1786 14.1871C18.6313 14.1871 17.3777 15.4408 17.3777 16.988C17.3777 17.6863 16.8143 18.2496 16.1161 18.2496C15.4178 18.2496 14.8545 17.6863 14.8545 16.988C14.8545 14.0522 17.2349 11.6719 20.1707 11.6719C23.1064 11.6719 25.4868 14.0522 25.4868 16.988C25.4947 18.9241 24.2331 20.63 22.3844 21.2013C21.5909 21.4472 21.0434 22.1852 21.0514 23.0104C21.0672 23.7086 20.5039 24.2719 19.8056 24.2719Z" fill="#C2C2C2"/>
<path d="M19.8132 28.4409C20.6458 28.4409 21.3208 27.766 21.3208 26.9333C21.3208 26.1007 20.6458 25.4258 19.8132 25.4258C18.9806 25.4258 18.3057 26.1007 18.3057 26.9333C18.3057 27.766 18.9806 28.4409 19.8132 28.4409Z" fill="#C2C2C2"/>
</svg>
