<svg width="44" height="44" viewBox="0 0 44 44" fill="none" xmlns="http://www.w3.org/2000/svg">
<path d="M31.5799 33.0736H12.5005C10.4581 33.0736 8.7998 31.4152 8.7998 29.3729C8.7998 28.6397 9.018 27.9153 9.43695 27.3043L10.8334 25.2358C11.2 24.6947 11.392 24.0663 11.3833 23.4117V16.8395C11.296 11.0702 15.7735 6.26111 21.534 5.92944C27.4167 5.65887 32.4091 10.2062 32.6796 16.0889C32.6884 16.2547 32.6884 16.4205 32.6884 16.5863V23.4117C32.6884 24.0575 32.8804 24.6947 33.2382 25.2358L34.6347 27.3043C35.7781 28.9976 35.333 31.3018 33.6397 32.4451C33.0375 32.8554 32.3218 33.0736 31.5799 33.0736ZM22.0402 8.70495H21.6562C17.3794 8.97552 14.0715 12.5627 14.1588 16.8482V23.4204C14.1588 24.6248 13.8009 25.7944 13.1289 26.7894L11.7324 28.8579C11.5317 29.146 11.5142 29.5125 11.6801 29.818C11.8372 30.1235 12.1514 30.3155 12.5005 30.3068H31.5799C31.929 30.3155 32.2432 30.1235 32.4003 29.818C32.5662 29.5125 32.5487 29.146 32.348 28.8579L30.9515 26.7894C30.2794 25.7944 29.9216 24.6161 29.9216 23.4204V16.5951C29.9216 12.2311 26.3955 8.70495 22.0402 8.70495Z" fill="#999999"/>
<path d="M22.0404 38.6177C18.2176 38.6177 15.1191 35.5192 15.1191 31.6963C15.1191 30.9283 15.7388 30.3086 16.5069 30.3086C17.275 30.3086 17.8946 30.9283 17.8946 31.6963C17.8946 33.9918 19.7537 35.8509 22.0492 35.8509C24.3446 35.8509 26.2037 33.9918 26.2037 31.6963C26.2037 30.9283 26.8234 30.3086 27.5915 30.3086C28.3595 30.3086 28.9792 30.9283 28.9792 31.6963C28.9618 35.5105 25.8633 38.6089 22.0404 38.6177Z" fill="#999999"/>
</svg>
