<svg width="44" height="44" viewBox="0 0 44 44" fill="none" xmlns="http://www.w3.org/2000/svg">
<path d="M22.2051 38.5449C13.1803 38.5449 5.86621 31.2308 5.86621 22.206C5.86621 13.1813 13.1803 5.86719 22.2051 5.86719C31.2298 5.86719 38.5439 13.1813 38.5439 22.206C38.5352 31.2308 31.2298 38.5361 22.2051 38.5449ZM22.2051 8.63397C14.7077 8.63397 8.633 14.7087 8.633 22.206C8.633 29.7034 14.7077 35.7781 22.2051 35.7781C29.7024 35.7781 35.7771 29.7034 35.7771 22.206C35.7684 14.7174 29.6937 8.6427 22.2051 8.63397Z" fill="#999999"/>
<path d="M30.0082 34.5051C28.5419 30.1934 23.8637 27.8892 19.5521 29.3468C17.1257 30.1673 15.223 32.0787 14.3938 34.5051L11.7754 33.6148C13.7305 27.8543 19.9885 24.7821 25.7489 26.7371C28.987 27.8369 31.5269 30.3767 32.6266 33.6148L30.0082 34.5051Z" fill="#999999"/>
<path d="M22.2051 24.7384C18.8972 24.7384 16.209 22.0589 16.209 18.7422C16.209 15.4256 18.8885 12.7461 22.2051 12.7461C25.5218 12.7461 28.2013 15.4256 28.2013 18.7422C28.1925 22.0502 25.513 24.7384 22.2051 24.7384ZM22.2051 15.5216C20.4246 15.5216 18.9845 16.9617 18.9845 18.7422C18.9845 20.5228 20.4246 21.9629 22.2051 21.9629C23.9856 21.9629 25.4258 20.5228 25.4258 18.7422C25.4258 16.9705 23.9856 15.5216 22.2051 15.5216Z" fill="#999999"/>
</svg>
