<svg width="44" height="44" viewBox="0 0 44 44" fill="none" xmlns="http://www.w3.org/2000/svg">
<g filter="url(#filter0_d)">
<path d="M26.307 38.5459H17.806C14.9257 38.5372 12.5255 36.329 12.2637 33.4575L10.5879 13.3481L13.3547 13.1125L15.0479 33.2218C15.1614 34.6619 16.3746 35.7704 17.8147 35.7704H26.307C27.7472 35.7617 28.9429 34.6532 29.0738 33.2218L30.7322 13.1125L33.4989 13.3481L31.8057 33.4575C31.5613 36.3203 29.1786 38.5197 26.307 38.5459Z" fill="#F9F9F9"/>
<path d="M36.1177 14.6235H7.98736C7.2193 14.6235 6.59961 14.0038 6.59961 13.2358C6.59961 12.4677 7.2193 11.848 7.98736 11.848H36.1177C36.8858 11.848 37.5055 12.4677 37.5055 13.2358C37.5055 14.0038 36.8858 14.6235 36.1177 14.6235Z" fill="#F9F9F9"/>
<path d="M29.4321 14.6193H26.6653V13.2316C26.6653 10.6917 24.6055 8.63191 22.0657 8.63191C19.5345 8.66682 17.4922 10.7092 17.466 13.2316V14.6193H14.6992V13.2316C14.6992 9.15559 18.0071 5.8564 22.0744 5.86513C26.1416 5.86513 29.4408 9.16432 29.4408 13.2316V14.6193H29.4321Z" fill="#F9F9F9"/>
<path d="M24.64 30.9969H24.544C23.7847 30.9445 23.1999 30.2899 23.2523 29.5218L23.8022 21.5444C23.8545 20.7764 24.5179 20.2003 25.2772 20.2527C26.0453 20.3051 26.6213 20.9684 26.5689 21.7277L26.0191 29.7051C25.9754 30.4383 25.3732 30.9969 24.64 30.9969Z" fill="#F9F9F9"/>
<path d="M19.4732 31.0015C18.74 31.0015 18.1378 30.4342 18.0941 29.701L17.5443 21.7236C17.4919 20.9555 18.0767 20.3009 18.836 20.2486C19.6041 20.1962 20.2587 20.781 20.3111 21.5403L20.8609 29.5177C20.9133 30.277 20.3372 30.9404 19.5692 30.9927L19.4732 31.0015Z" fill="#F9F9F9"/>
</g>
<defs>
<filter id="filter0_d" x="1.59961" y="0.865112" width="40.9059" height="42.6808" filterUnits="userSpaceOnUse" color-interpolation-filters="sRGB">
<feFlood flood-opacity="0" result="BackgroundImageFix"/>
<feColorMatrix in="SourceAlpha" type="matrix" values="0 0 0 0 0 0 0 0 0 0 0 0 0 0 0 0 0 0 127 0"/>
<feOffset/>
<feGaussianBlur stdDeviation="2.5"/>
<feColorMatrix type="matrix" values="0 0 0 0 0 0 0 0 0 0 0 0 0 0 0 0 0 0 0.3 0"/>
<feBlend mode="normal" in2="BackgroundImageFix" result="effect1_dropShadow"/>
<feBlend mode="normal" in="SourceGraphic" in2="effect1_dropShadow" result="shape"/>
</filter>
</defs>
</svg>
