<svg width="32" height="32" viewBox="0 0 32 32" fill="none" xmlns="http://www.w3.org/2000/svg">
<path d="M5.26949 28.0335C5.00289 28.0335 4.74898 27.9256 4.55855 27.7415C4.31099 27.4876 4.20943 27.1258 4.29829 26.7767L5.54878 21.8954C5.59321 21.7176 5.68208 21.5589 5.80904 21.432L22.6811 4.55994C23.0746 4.17273 23.7094 4.17273 24.1093 4.55994L27.7338 8.18444C28.1274 8.578 28.1274 9.21911 27.7338 9.61266L10.8681 26.491C10.7412 26.618 10.5825 26.7069 10.4047 26.7513L5.52339 28.0018C5.44087 28.0208 5.35201 28.0335 5.26949 28.0335ZM7.42768 22.6571L6.68501 25.6151L9.65571 24.8597L25.62 8.90807L23.3984 6.6864L7.42768 22.6571Z" fill="#FF7134"/>
<path d="M23.906 13.0354C23.6394 13.029 23.3855 12.9211 23.1951 12.7307L19.5706 9.1062C19.177 8.71264 19.177 8.07153 19.5706 7.67798C19.9641 7.28442 20.6052 7.28442 20.9988 7.67798L24.6233 11.3025C25.0168 11.696 25.0168 12.3308 24.6233 12.7244C24.4329 12.9148 24.1789 13.0227 23.906 13.0227V13.0354Z" fill="#FF7134"/>
<path d="M23.1509 28.0342H14.9878C14.4292 28.0342 13.9785 27.5835 13.9785 27.0249C13.9785 26.4663 14.4292 26.0156 14.9878 26.0156H23.1509C23.7095 26.0156 24.1601 26.4663 24.1601 27.0249C24.1601 27.5835 23.7095 28.0342 23.1509 28.0342Z" fill="#FF7134"/>
</svg>
