<svg width="44" height="44" viewBox="0 0 44 44" fill="none" xmlns="http://www.w3.org/2000/svg">
<g filter="url(#filter0_d)">
<path d="M30.8891 19.7088C27.0662 19.7088 23.9678 16.6103 23.9678 12.7875C23.9678 8.96459 27.0662 5.86615 30.8891 5.86615C34.7119 5.86615 37.8104 8.96459 37.8104 12.7875C37.8017 16.6103 34.7119 19.7088 30.8891 19.7088ZM30.8891 8.63293C28.5936 8.63293 26.7346 10.492 26.7346 12.7875C26.7346 15.0829 28.5936 16.942 30.8891 16.942C33.1845 16.942 35.0436 15.0829 35.0436 12.7875C35.0436 10.492 33.1845 8.63293 30.8891 8.63293Z" fill="#F9F9F9"/>
<path d="M11.5043 28.5778C7.98686 28.5778 5.13281 25.7237 5.13281 22.2063C5.13281 18.689 7.98686 15.8349 11.5043 15.8349C15.0216 15.8349 17.8757 18.689 17.8757 22.2063C17.867 25.7237 15.0216 28.5691 11.5043 28.5778ZM11.5043 18.6017C9.51426 18.6017 7.8996 20.2164 7.8996 22.2063C7.8996 24.1963 9.51426 25.811 11.5043 25.811C13.4942 25.811 15.109 24.1963 15.109 22.2063C15.1002 20.2164 13.4855 18.6104 11.5043 18.6017Z" fill="#F9F9F9"/>
<path d="M31.4388 38.5408C27.9214 38.5408 25.0674 35.6867 25.0674 32.1694C25.0674 28.652 27.9214 25.7979 31.4388 25.7979C34.9562 25.7979 37.8103 28.652 37.8103 32.1694C37.8103 35.6867 34.9562 38.5408 31.4388 38.5408ZM31.4388 28.5734C29.4488 28.5734 27.8341 30.1881 27.8341 32.1781C27.8341 34.1681 29.4488 35.7828 31.4388 35.7828C33.4288 35.7828 35.0435 34.1681 35.0435 32.1781C35.0348 30.1881 33.4288 28.5734 31.4388 28.5734Z" fill="#F9F9F9"/>
<path d="M26.979 31.3458C26.7695 31.3458 26.5513 31.2934 26.368 31.1974L15.3358 25.6552C14.6376 25.3409 14.3234 24.5205 14.6376 23.8223C14.9518 23.124 15.7723 22.8098 16.4705 23.124C16.5054 23.1415 16.5403 23.1589 16.5752 23.1764L27.6074 28.7187C28.297 29.0591 28.5762 29.8882 28.2358 30.5778C27.9915 31.0491 27.5114 31.3458 26.979 31.3458Z" fill="#F9F9F9"/>
<path d="M15.9639 21.3772C15.1959 21.3772 14.5762 20.7662 14.5762 19.9981C14.5762 19.4657 14.8729 18.9857 15.3442 18.75L25.2156 13.8187C25.8877 13.4521 26.7256 13.6878 27.1009 14.3598C27.4675 15.0319 27.2318 15.8698 26.5598 16.2451C26.5249 16.2626 26.4899 16.28 26.455 16.2975L16.5923 21.2201C16.3916 21.3161 16.1734 21.3684 15.9639 21.3772Z" fill="#F9F9F9"/>
</g>
<defs>
<filter id="filter0_d" x="0.132812" y="0.86615" width="42.6776" height="42.6747" filterUnits="userSpaceOnUse" color-interpolation-filters="sRGB">
<feFlood flood-opacity="0" result="BackgroundImageFix"/>
<feColorMatrix in="SourceAlpha" type="matrix" values="0 0 0 0 0 0 0 0 0 0 0 0 0 0 0 0 0 0 127 0"/>
<feOffset/>
<feGaussianBlur stdDeviation="2.5"/>
<feColorMatrix type="matrix" values="0 0 0 0 0 0 0 0 0 0 0 0 0 0 0 0 0 0 0.3 0"/>
<feBlend mode="normal" in2="BackgroundImageFix" result="effect1_dropShadow"/>
<feBlend mode="normal" in="SourceGraphic" in2="effect1_dropShadow" result="shape"/>
</filter>
</defs>
</svg>
