<svg width="44" height="44" viewBox="0 0 44 44" fill="none" xmlns="http://www.w3.org/2000/svg">
<path d="M22.205 38.5449C13.1803 38.5449 5.86621 31.2308 5.86621 22.206C5.86621 13.1813 13.1803 5.86719 22.205 5.86719C31.2298 5.86719 38.5438 13.1813 38.5438 22.206C38.5351 31.2308 31.2298 38.5361 22.205 38.5449ZM22.205 8.63397C14.7077 8.63397 8.63298 14.7087 8.63298 22.206C8.63298 29.7034 14.7077 35.7781 22.205 35.7781C29.7024 35.7781 35.7771 29.7034 35.7771 22.206C35.7683 14.7174 29.6937 8.6427 22.205 8.63397Z" fill="#999999"/>
<path d="M22.2052 17.0549C23.1211 17.0549 23.8636 16.3125 23.8636 15.3966C23.8636 14.4807 23.1211 13.7383 22.2052 13.7383C21.2894 13.7383 20.5469 14.4807 20.5469 15.3966C20.5469 16.3125 21.2894 17.0549 22.2052 17.0549Z" fill="#999999"/>
<path d="M22.0573 18.9648H22.354C22.9912 18.9648 23.5149 19.4885 23.5149 20.1257V29.5083C23.5149 30.1454 22.9912 30.6691 22.354 30.6691H22.0573C21.4202 30.6691 20.8965 30.1454 20.8965 29.5083V20.1344C20.8965 19.4885 21.4202 18.9648 22.0573 18.9648Z" fill="#999999"/>
</svg>
