<svg width="31" height="31" viewBox="0 0 31 31" fill="none" xmlns="http://www.w3.org/2000/svg">
<path d="M15.1865 30.039C6.98217 30.039 0.333008 23.3899 0.333008 15.1855C0.333008 6.98119 6.98217 0.332031 15.1865 0.332031C23.3908 0.332031 30.04 6.98119 30.04 15.1855C30.0321 23.3899 23.3908 30.0311 15.1865 30.039ZM15.1865 2.84729C8.37072 2.84729 2.84827 8.36974 2.84827 15.1855C2.84827 22.0013 8.37072 27.5238 15.1865 27.5238C22.0023 27.5238 27.5247 22.0013 27.5247 15.1855C27.5168 8.37767 21.9944 2.85522 15.1865 2.84729Z" fill="#C2C2C2"/>
<path d="M14.8056 19.2719C14.1074 19.2719 13.5441 18.7086 13.5441 18.0104C13.5361 16.0743 14.7977 14.3684 16.6465 13.7971C17.4399 13.5511 17.9874 12.8132 17.9795 11.988C17.9795 10.4408 16.7258 9.18713 15.1786 9.18713C13.6313 9.18713 12.3777 10.4408 12.3777 11.988C12.3777 12.6863 11.8143 13.2496 11.1161 13.2496C10.4178 13.2496 9.85449 12.6863 9.85449 11.988C9.85449 9.05224 12.2349 6.67188 15.1707 6.67188C18.1064 6.67188 20.4868 9.05224 20.4868 11.988C20.4947 13.9241 19.2331 15.63 17.3844 16.2013C16.5909 16.4472 16.0434 17.1852 16.0514 18.0104C16.0672 18.7086 15.5039 19.2719 14.8056 19.2719Z" fill="#C2C2C2"/>
<path d="M14.8132 23.4409C15.6458 23.4409 16.3208 22.766 16.3208 21.9333C16.3208 21.1007 15.6458 20.4258 14.8132 20.4258C13.9806 20.4258 13.3057 21.1007 13.3057 21.9333C13.3057 22.766 13.9806 23.4409 14.8132 23.4409Z" fill="#C2C2C2"/>
</svg>
