<svg width="322" height="48" viewBox="0 0 322 48" fill="none" xmlns="http://www.w3.org/2000/svg">
<path d="M64.283 35.4797C62.6842 35.4797 61.2007 35.1853 59.8327 34.6023C58.4647 34.0193 57.2814 33.2285 56.3002 32.2299C55.3131 31.2314 54.5455 30.0596 53.9856 28.7147C53.4199 27.3698 53.1428 25.9383 53.1428 24.4202V24.3394C53.1428 22.8214 53.4199 21.3841 53.9798 20.0277C54.5397 18.6712 55.3074 17.4879 56.2944 16.472C57.2814 15.4619 58.459 14.6653 59.827 14.0766C61.2007 13.4936 62.7073 13.1992 64.3581 13.1992C66.3783 13.1992 68.058 13.5167 69.3914 14.1574C70.719 14.7981 71.8907 15.6755 72.9066 16.7895L69.1951 20.7838C68.5025 20.0623 67.7925 19.4908 67.0594 19.0695C66.3264 18.6423 65.4144 18.4288 64.3234 18.4288C63.55 18.4288 62.8516 18.5846 62.2282 18.8905C61.6048 19.1965 61.0564 19.6178 60.5889 20.1489C60.1213 20.6799 59.7635 21.2975 59.5095 22.0075C59.2555 22.7117 59.1285 23.4621 59.1285 24.2644V24.3452C59.1285 25.1706 59.2555 25.9441 59.5095 26.6598C59.7635 27.3756 60.1271 28.0047 60.6062 28.5358C61.0853 29.0668 61.6567 29.4882 62.3205 29.7941C62.9843 30.1 63.7289 30.2559 64.5543 30.2559C65.5645 30.2559 66.4534 30.0481 67.2095 29.6383C67.9657 29.2284 68.7218 28.6743 69.4664 27.9817L73.0221 31.5777C71.9831 32.7206 70.7998 33.6614 69.4664 34.3945C68.1331 35.1276 66.4072 35.4797 64.283 35.4797Z" fill="black"/>
<path d="M86.6786 35.4776C85.0278 35.4776 83.4982 35.189 82.0898 34.6176C80.6756 34.0461 79.4635 33.2611 78.436 32.2625C77.4086 31.264 76.6063 30.0922 76.0175 28.7473C75.4345 27.4024 75.1401 25.9594 75.1401 24.4124V24.3316C75.1401 22.7905 75.4345 21.3417 76.0175 19.9968C76.6063 18.6519 77.4144 17.4743 78.4533 16.4642C79.4923 15.4541 80.716 14.6575 82.1244 14.0688C83.5328 13.4858 85.0798 13.1914 86.7537 13.1914C88.4045 13.1914 89.9341 13.48 91.3425 14.0515C92.7509 14.6229 93.9688 15.4079 94.9963 16.4065C96.0179 17.4051 96.826 18.5768 97.409 19.9217C97.9978 21.2666 98.2864 22.7097 98.2864 24.2566V24.3374C98.2864 25.8786 97.992 27.3274 97.409 28.6723C96.826 30.0172 96.0122 31.1947 94.9732 32.2048C93.9342 33.2149 92.7105 34.0173 91.3021 34.6003C89.8995 35.1832 88.3526 35.4776 86.6786 35.4776ZM86.7594 30.2481C87.6368 30.2481 88.416 30.098 89.0914 29.7863C89.7725 29.4804 90.3497 29.059 90.8288 28.528C91.3079 27.9969 91.6715 27.3793 91.9255 26.6693C92.1795 25.9651 92.3065 25.2148 92.3065 24.4124V24.3316C92.3065 23.5351 92.1737 22.7789 91.9082 22.0747C91.6427 21.3705 91.2559 20.7471 90.748 20.1988C90.24 19.6504 89.6455 19.2175 88.9529 18.9C88.2602 18.5826 87.504 18.421 86.6786 18.421C85.8013 18.421 85.022 18.5768 84.3409 18.8827C83.6656 19.1887 83.0826 19.61 82.6035 20.1411C82.1244 20.6721 81.7608 21.2897 81.5068 21.9997C81.2528 22.7039 81.1258 23.4543 81.1258 24.2566V24.3374C81.1258 25.134 81.2586 25.8901 81.5241 26.5943C81.7896 27.2985 82.1764 27.9277 82.6843 28.4702C83.1923 29.0186 83.781 29.4515 84.4621 29.769C85.1432 30.0864 85.9052 30.2481 86.7594 30.2481Z" fill="black"/>
<path d="M112.388 35.4776C110.738 35.4776 109.208 35.189 107.8 34.6176C106.385 34.0461 105.173 33.2611 104.146 32.2625C103.118 31.264 102.316 30.0922 101.727 28.7473C101.144 27.4024 100.85 25.9594 100.85 24.4124V24.3316C100.85 22.7905 101.144 21.3417 101.727 19.9968C102.316 18.6519 103.124 17.4743 104.163 16.4642C105.202 15.4541 106.426 14.6575 107.834 14.0688C109.243 13.4858 110.789 13.1914 112.463 13.1914C114.114 13.1914 115.644 13.48 117.052 14.0515C118.461 14.6229 119.679 15.4079 120.706 16.4065C121.728 17.4051 122.536 18.5768 123.119 19.9217C123.708 21.2666 123.996 22.7097 123.996 24.2566V24.3374C123.996 25.8786 123.702 27.3274 123.119 28.6723C122.536 30.0172 121.722 31.1947 120.683 32.2048C119.644 33.2149 118.42 34.0173 117.012 34.6003C115.609 35.1832 114.068 35.4776 112.388 35.4776ZM112.469 30.2481C113.347 30.2481 114.126 30.098 114.801 29.7863C115.482 29.4804 116.059 29.059 116.539 28.528C117.018 27.9969 117.381 27.3793 117.635 26.6693C117.889 25.9651 118.016 25.2148 118.016 24.4124V24.3316C118.016 23.5351 117.883 22.7789 117.618 22.0747C117.352 21.3705 116.966 20.7471 116.458 20.1988C115.95 19.6504 115.355 19.2175 114.663 18.9C113.97 18.5826 113.214 18.421 112.388 18.421C111.511 18.421 110.732 18.5768 110.051 18.8827C109.375 19.1887 108.792 19.61 108.313 20.1411C107.834 20.6721 107.47 21.2897 107.217 21.9997C106.963 22.7039 106.836 23.4543 106.836 24.2566V24.3374C106.836 25.134 106.968 25.8901 107.234 26.5943C107.499 27.2985 107.886 27.9277 108.394 28.4702C108.902 29.0186 109.491 29.4515 110.172 29.769C110.853 30.0864 111.615 30.2481 112.469 30.2481Z" fill="black"/>
<path d="M139.95 34.7841L133.347 25.6641V34.7841H127.511V5.89453H133.347V23.1879L139.54 14.1487H146.761L139.252 24.4693L146.969 34.7898H139.95V34.7841Z" fill="black"/>
<path d="M150.467 14.1719H156.025V34.9977H150.467V14.1719Z" fill="black"/>
<path d="M184.303 14.3566H187.379V18.5068C187.806 17.895 188.28 17.3062 188.793 16.7521C189.313 16.1922 189.89 15.7073 190.531 15.2975C191.171 14.8877 191.881 14.5529 192.666 14.2989C193.451 14.0449 194.323 13.918 195.281 13.918C196.505 13.918 197.711 14.1604 198.895 14.6337C200.078 15.1128 201.14 15.8112 202.069 16.729C202.999 17.6468 203.743 18.7666 204.303 20.0826C204.863 21.3987 205.14 22.911 205.14 24.6137V24.6945C205.14 26.3685 204.863 27.875 204.303 29.2026C203.743 30.5359 203.004 31.6557 202.087 32.5793C201.169 33.497 200.118 34.2012 198.935 34.6919C197.752 35.1825 196.534 35.4307 195.281 35.4307C194.323 35.4307 193.446 35.3095 192.643 35.0728C191.847 34.8304 191.125 34.5129 190.49 34.1147C189.85 33.7164 189.272 33.2488 188.753 32.7178C188.233 32.1868 187.772 31.6269 187.373 31.0381V41.376H184.297V14.3566H184.303ZM194.721 32.6832C195.708 32.6832 196.643 32.5042 197.538 32.1464C198.433 31.7885 199.201 31.269 199.853 30.5879C200.505 29.9068 201.025 29.0756 201.411 28.0943C201.798 27.1131 201.988 25.9933 201.988 24.7407V24.6599C201.988 23.4362 201.798 22.3337 201.411 21.3467C201.025 20.3597 200.499 19.5227 199.835 18.8301C199.172 18.1374 198.398 17.6064 197.521 17.2312C196.643 16.8618 195.708 16.6713 194.727 16.6713C193.769 16.6713 192.845 16.8618 191.951 17.2485C191.056 17.6352 190.259 18.1778 189.555 18.8878C188.851 19.592 188.291 20.4289 187.881 21.4044C187.466 22.3741 187.264 23.4478 187.264 24.6195V24.7003C187.264 25.9009 187.472 26.9918 187.881 27.9731C188.291 28.9601 188.851 29.7971 189.555 30.4898C190.259 31.1824 191.056 31.7192 191.951 32.106C192.84 32.4927 193.763 32.6832 194.721 32.6832Z" fill="black"/>
<path d="M229.943 14.3617V34.9971H227.219V30.9508C225.487 33.7157 222.555 35.4935 218.884 35.4935C213.065 35.4935 208.234 30.7892 208.234 24.6823C208.234 18.5754 213.065 13.8711 218.884 13.8711C222.555 13.8711 225.487 15.6431 227.219 18.4138V14.3675H229.943V14.3617ZM227.219 24.6765C227.219 20.0935 223.669 16.5032 219.086 16.5032C214.503 16.5032 210.953 20.0935 210.953 24.6765C210.953 29.2596 214.503 32.8499 219.086 32.8499C223.669 32.8499 227.219 29.2596 227.219 24.6765Z" fill="black"/>
<path d="M235.439 14.3581H238.515V19.7493C238.885 18.895 239.352 18.11 239.912 17.3943C240.472 16.6785 241.113 16.0551 241.828 15.5356C242.544 15.0162 243.329 14.6236 244.184 14.3581C245.038 14.0926 245.956 13.9714 246.937 14.0003V17.3135H246.7C245.58 17.3135 244.524 17.5155 243.525 17.9138C242.527 18.312 241.655 18.9123 240.911 19.7089C240.166 20.5055 239.577 21.4983 239.156 22.6815C238.735 23.8648 238.515 25.2328 238.515 26.774V34.9993H235.439V14.3581V14.3581Z" fill="black"/>
<path d="M263.473 34.9962L253.049 24.947V34.9962H250.296V5.80078H253.049V23.3596L262.977 14.1415H266.729L255.97 24.1504L267.145 34.9962H263.473V34.9962Z" fill="black"/>
<path d="M273.096 14.1719H270.025V34.9977H273.096V14.1719Z" fill="black"/>
<path d="M278.643 14.3587H281.719V17.9547C282.412 16.8349 283.318 15.8883 284.432 15.1033C285.552 14.3183 287.001 13.9258 288.784 13.9258C290.037 13.9258 291.145 14.1278 292.12 14.5261C293.09 14.9244 293.916 15.49 294.597 16.2231C295.278 16.9561 295.797 17.8277 296.155 18.8379C296.513 19.848 296.692 20.9678 296.692 22.1915V35.0056H293.615V22.9765C293.615 21.0659 293.125 19.5478 292.138 18.4338C291.151 17.3198 289.742 16.7599 287.907 16.7599C287.029 16.7599 286.21 16.91 285.454 17.2159C284.698 17.5218 284.04 17.9605 283.48 18.5319C282.92 19.1034 282.487 19.7903 282.181 20.5868C281.875 21.3834 281.725 22.2607 281.725 23.2131V35.0056H278.648V14.3587H278.643Z" fill="black"/>
<path d="M310.782 41.4684C309.05 41.4684 307.4 41.2259 305.83 40.7526C304.26 40.2735 302.782 39.552 301.397 38.5996L302.793 36.2042C303.994 37.0585 305.241 37.7049 306.545 38.1609C307.85 38.6112 309.247 38.8363 310.736 38.8363C313.022 38.8363 314.846 38.2187 316.202 36.9776C317.559 35.7424 318.24 33.9126 318.24 31.4883V29.0525C317.333 30.2531 316.231 31.2748 314.926 32.1233C313.622 32.9776 312.023 33.3989 310.136 33.3989C308.883 33.3989 307.682 33.1738 306.522 32.7236C305.362 32.2734 304.335 31.6269 303.428 30.7841C302.522 29.9472 301.795 28.9371 301.252 27.748C300.71 26.5589 300.433 25.2256 300.433 23.7364V23.6556C300.433 22.1375 300.704 20.781 301.252 19.5862C301.801 18.3856 302.522 17.3697 303.428 16.5327C304.335 15.6958 305.374 15.0493 306.54 14.5991C307.711 14.1488 308.906 13.918 310.136 13.918C311.094 13.918 311.977 14.0334 312.791 14.2585C313.605 14.4836 314.332 14.7838 314.984 15.159C315.636 15.5342 316.225 15.9728 316.762 16.475C317.293 16.983 317.772 17.514 318.199 18.0739V14.3624H321.27V31.4075C321.27 33.0064 321.045 34.409 320.595 35.6212C320.139 36.8333 319.492 37.8608 318.638 38.7151C317.709 39.6444 316.571 40.337 315.244 40.793C313.922 41.2375 312.433 41.4684 310.782 41.4684ZM310.742 30.686C311.723 30.686 312.67 30.5186 313.576 30.1896C314.482 29.8548 315.284 29.3757 315.994 28.7524C316.698 28.129 317.264 27.3901 317.691 26.5359C318.118 25.6816 318.332 24.7407 318.332 23.7017V23.6209C318.332 22.5589 318.118 21.6007 317.691 20.7464C317.264 19.8921 316.698 19.1648 315.994 18.553C315.29 17.9411 314.482 17.4678 313.576 17.1388C312.67 16.804 311.729 16.6424 310.742 16.6424C309.755 16.6424 308.831 16.8098 307.965 17.1388C307.099 17.4736 306.343 17.9354 305.691 18.5357C305.039 19.136 304.525 19.8575 304.156 20.7118C303.78 21.566 303.596 22.5242 303.596 23.5863V23.6671C303.596 24.7061 303.786 25.6585 304.173 26.5185C304.56 27.3844 305.079 28.1232 305.731 28.735C306.384 29.3469 307.14 29.826 308.006 30.1723C308.871 30.5128 309.783 30.686 310.742 30.686Z" fill="black"/>
<path d="M176.39 28.2883C175.656 28.9232 175.172 29.2811 174.317 29.8236C173.169 30.5509 172.02 30.8626 170.866 30.7587C169.711 30.6548 168.643 30.0949 167.656 29.0848L180.234 21.1135C180.101 20.8537 179.968 20.6055 179.835 20.3747C179.703 20.1438 179.576 19.9244 179.449 19.7224C178.635 18.441 177.682 17.3212 176.586 16.363C175.489 15.4048 174.288 14.7006 172.978 14.2562C171.668 13.806 170.294 13.6674 168.851 13.8233C167.408 13.9849 165.93 14.539 164.43 15.4914C163.102 16.3342 162.052 17.3443 161.272 18.5276C160.499 19.7109 159.985 20.9807 159.737 22.3372C159.494 23.6936 159.512 25.0789 159.8 26.5047C160.089 27.9304 160.637 29.2811 161.451 30.5625L161.492 30.6317C162.375 32.0228 163.414 33.1426 164.603 33.9738C165.798 34.8108 167.073 35.3764 168.447 35.6766C169.815 35.9767 171.223 35.9825 172.666 35.6939C174.11 35.4111 175.506 34.8396 176.851 33.9853C177.602 33.512 178.254 32.9983 178.831 32.4557L176.39 28.2883ZM165.082 22.2968C165.301 21.1828 165.953 20.2765 167.033 19.5954C168.112 18.9143 169.215 18.695 170.335 18.9201C171.46 19.1452 172.395 19.9764 173.226 20.7614L165.503 25.6562C165.018 24.6229 164.857 23.4166 165.082 22.2968Z" fill="black"/>
<path d="M152.99 11.3669C154.708 11.3669 156.101 9.97397 156.101 8.25571C156.101 6.53745 154.708 5.14453 152.99 5.14453C151.272 5.14453 149.879 6.53745 149.879 8.25571C149.879 9.97397 151.272 11.3669 152.99 11.3669Z" fill="black"/>
<path d="M271.561 9.33312C272.683 9.33312 273.592 8.42345 273.592 7.30133C273.592 6.1792 272.683 5.26953 271.561 5.26953C270.438 5.26953 269.529 6.1792 269.529 7.30133C269.529 8.42345 270.438 9.33312 271.561 9.33312Z" fill="black"/>
<path d="M19.8561 47.9982C19.7067 47.9982 19.5547 47.9738 19.4107 47.9249L1.41754 41.8801C0.847278 41.6873 0.46167 41.1523 0.46167 40.5495C0.464385 39.9466 0.849991 39.4117 1.42297 39.2243L6.63953 37.4999C7.37273 37.2582 8.16567 37.6547 8.41007 38.3906C8.65175 39.1238 8.25528 39.9167 7.51937 40.1611L6.29194 40.5658L19.8507 45.1197L33.0455 40.544L31.7149 40.0742C30.9844 39.8163 30.6015 39.0179 30.8595 38.2874C31.1175 37.5569 31.9158 37.174 32.6463 37.432L37.757 39.2324C38.3191 39.4307 38.6938 39.9629 38.6911 40.5576C38.6884 41.1523 38.3109 41.6818 37.7488 41.8774L20.315 47.9222C20.1657 47.9738 20.0109 47.9982 19.8561 47.9982Z" fill="black"/>
<path d="M19.5736 39.1473C8.78207 39.1473 0 30.3679 0 19.5736C0 8.77936 8.78207 0 19.5736 0C19.8398 0 20.1032 0.00814663 20.3666 0.0190088C21.0618 0.0461643 21.632 0.581127 21.7026 1.27359C22.1045 5.17583 25.241 8.1928 29.1595 8.44806C29.8819 8.49422 30.4521 9.08621 30.4684 9.81126C30.5716 13.928 33.7406 17.279 37.8411 17.6076C38.5526 17.6646 39.1066 18.2457 39.1283 18.9599L39.1337 19.0794C39.1391 19.2423 39.1446 19.4053 39.1446 19.5709C39.1473 30.3652 30.3679 39.1473 19.5736 39.1473ZM19.1174 2.80787C10.0801 3.04956 2.79973 10.4766 2.79973 19.5736C2.79973 28.8228 10.3245 36.3448 19.5709 36.3448C28.6028 36.3448 35.9891 29.1704 36.3313 20.2227C31.8289 19.3184 28.3883 15.6578 27.7664 11.0984C23.4677 10.3354 20.0597 7.06585 19.1174 2.80787Z" fill="black"/>
<path d="M14.4359 13.4709C15.6867 13.4709 16.7007 12.457 16.7007 11.2062C16.7007 9.95538 15.6867 8.94141 14.4359 8.94141C13.1851 8.94141 12.1711 9.95538 12.1711 11.2062C12.1711 12.457 13.1851 13.4709 14.4359 13.4709Z" fill="black"/>
<path d="M19.5572 21.7795C20.808 21.7795 21.822 20.7656 21.822 19.5148C21.822 18.264 20.808 17.25 19.5572 17.25C18.3065 17.25 17.2925 18.264 17.2925 19.5148C17.2925 20.7656 18.3065 21.7795 19.5572 21.7795Z" fill="black"/>
<path d="M19.84 31.5061C21.0908 31.5061 22.1047 30.4921 22.1047 29.2413C22.1047 27.9905 21.0908 26.9766 19.84 26.9766C18.5892 26.9766 17.5752 27.9905 17.5752 29.2413C17.5752 30.4921 18.5892 31.5061 19.84 31.5061Z" fill="black"/>
<path d="M9.90612 23.178C11.1569 23.178 12.1709 22.164 12.1709 20.9132C12.1709 19.6624 11.1569 18.6484 9.90612 18.6484C8.65533 18.6484 7.64136 19.6624 7.64136 20.9132C7.64136 22.164 8.65533 23.178 9.90612 23.178Z" fill="black"/>
<path d="M28.38 25.9827C29.6308 25.9827 30.6448 24.9687 30.6448 23.7179C30.6448 22.4671 29.6308 21.4531 28.38 21.4531C27.1292 21.4531 26.1152 22.4671 26.1152 23.7179C26.1152 24.9687 27.1292 25.9827 28.38 25.9827Z" fill="black"/>
</svg>
