<svg width="56" height="68" viewBox="0 0 56 68" fill="none" xmlns="http://www.w3.org/2000/svg">
<path d="M28.059 68C27.8486 68 27.632 67.9628 27.4278 67.8945L1.99924 59.3341C1.18855 59.0611 0.650146 58.3043 0.650146 57.4483C0.650146 56.5922 1.20092 55.8354 2.00543 55.5687L9.37592 53.1246C10.4156 52.7835 11.5357 53.3417 11.8761 54.3839C12.2164 55.426 11.6533 56.5488 10.6198 56.89L8.88703 57.4669L28.0466 63.9183L46.6925 57.4359L44.8112 56.7721C43.7778 56.4061 43.2394 55.2772 43.6045 54.2412C43.9696 53.2053 45.0959 52.6656 46.1294 53.0316L53.3514 55.5811C54.1435 55.8603 54.6757 56.6171 54.6757 57.4545C54.6757 58.2919 54.1373 59.0487 53.3452 59.3217L28.7088 67.8883C28.4984 67.9628 28.2818 68 28.059 68Z" fill="white"/>
<path d="M27.6626 55.457C12.4079 55.457 0 43.0195 0 27.7285C0 12.4375 12.4079 0 27.6626 0C28.0401 0 28.4114 0.0124065 28.7827 0.0310162C29.7667 0.0682357 30.5712 0.831234 30.6702 1.81135C31.2395 7.33844 35.6705 11.6125 41.2092 11.9723C42.2303 12.0405 43.0348 12.8779 43.0595 13.9015C43.2081 19.7325 47.6824 24.4842 53.481 24.9494C54.4835 25.0301 55.2694 25.8551 55.3004 26.8662L55.3066 27.0399C55.3128 27.2695 55.319 27.5052 55.319 27.7347C55.3251 43.0195 42.9172 55.457 27.6626 55.457ZM27.019 3.97628C14.2459 4.31746 3.96064 14.8444 3.96064 27.7285C3.96064 40.8297 14.5925 51.4869 27.6626 51.4869C40.4232 51.4869 50.8632 41.326 51.3459 28.6466C44.9842 27.3625 40.12 22.1828 39.2412 15.7252C33.1641 14.6397 28.3495 10.012 27.019 3.97628Z" fill="white"/>
<path d="M20.397 19.0811C22.164 19.0811 23.5964 17.6453 23.5964 15.874C23.5964 14.1028 22.164 12.667 20.397 12.667C18.63 12.667 17.1975 14.1028 17.1975 15.874C17.1975 17.6453 18.63 19.0811 20.397 19.0811Z" fill="white"/>
<path d="M27.6379 30.855C29.4049 30.855 30.8374 29.4192 30.8374 27.6479C30.8374 25.8767 29.4049 24.4409 27.6379 24.4409C25.8709 24.4409 24.4385 25.8767 24.4385 27.6479C24.4385 29.4192 25.8709 30.855 27.6379 30.855Z" fill="white"/>
<path d="M28.0339 44.626C29.8009 44.626 31.2334 43.1902 31.2334 41.419C31.2334 39.6477 29.8009 38.2119 28.0339 38.2119C26.2669 38.2119 24.8345 39.6477 24.8345 41.419C24.8345 43.1902 26.2669 44.626 28.0339 44.626Z" fill="white"/>
<path d="M13.998 32.8337C15.765 32.8337 17.1975 31.3979 17.1975 29.6267C17.1975 27.8554 15.765 26.4196 13.998 26.4196C12.231 26.4196 10.7986 27.8554 10.7986 29.6267C10.7986 31.3979 12.231 32.8337 13.998 32.8337Z" fill="white"/>
<path d="M40.1074 36.8039C41.8744 36.8039 43.3069 35.368 43.3069 33.5968C43.3069 31.8256 41.8744 30.3897 40.1074 30.3897C38.3404 30.3897 36.908 31.8256 36.908 33.5968C36.908 35.368 38.3404 36.8039 40.1074 36.8039Z" fill="white"/>
</svg>
