<svg width="406" height="246" viewBox="0 0 406 246" fill="none" xmlns="http://www.w3.org/2000/svg">
<rect width="406" height="245" fill="#E6E6E6"/>
<rect y="59.5898" width="406" height="108" fill="#F0F2F3"/>
<path d="M0 70.2852H257C268.598 70.2852 278 79.6872 278 91.2852C278 102.883 268.598 112.285 257 112.285H0V70.2852Z" fill="white"/>
<circle cx="315" cy="93" r="50" fill="#222222" fill-opacity="0.15"/>
<circle cx="368.236" cy="82.509" r="3.0559" fill="#999999"/>
<circle cx="368.236" cy="93.2043" r="3.0559" fill="#999999"/>
<circle cx="368.236" cy="103.9" r="3.0559" fill="#999999"/>
<rect y="178.77" width="388" height="67" fill="white"/>
<circle cx="314" cy="92" r="21" fill="black"/>
<path d="M314.16 105.54C314.076 105.54 313.989 105.525 313.907 105.498L303.718 102.067C303.393 101.958 303.177 101.655 303.177 101.312C303.177 100.969 303.398 100.666 303.72 100.559L306.674 99.5793C307.09 99.4426 307.539 99.6663 307.676 100.084C307.812 100.501 307.586 100.951 307.172 101.088L306.478 101.319L314.155 103.904L321.627 101.307L320.873 101.041C320.459 100.894 320.243 100.442 320.389 100.027C320.536 99.6116 320.987 99.3953 321.401 99.542L324.295 100.564C324.613 100.675 324.826 100.979 324.826 101.314C324.826 101.65 324.61 101.953 324.293 102.062L314.421 105.495C314.336 105.525 314.25 105.54 314.16 105.54Z" fill="white"/>
<path d="M314.001 100.515C307.888 100.515 302.917 95.5312 302.917 89.404C302.917 83.2768 307.888 78.293 314.001 78.293C314.152 78.293 314.301 78.2979 314.45 78.3054C314.844 78.3203 315.167 78.626 315.206 79.0188C315.434 81.2335 317.21 82.9462 319.429 83.0903C319.838 83.1177 320.161 83.4532 320.171 83.8634C320.23 86.1999 322.023 88.1039 324.347 88.2904C324.748 88.3227 325.063 88.6533 325.076 89.0584L325.078 89.128C325.081 89.22 325.083 89.3145 325.083 89.4064C325.086 95.5312 320.114 100.515 314.001 100.515ZM313.743 79.8863C308.625 80.023 304.504 84.2412 304.504 89.404C304.504 94.6537 308.764 98.9241 314.001 98.9241C319.114 98.9241 323.298 94.8526 323.491 89.7718C320.942 89.2573 318.993 87.1818 318.641 84.5942C316.206 84.1592 314.276 82.3049 313.743 79.8863Z" fill="white"/>
<path d="M311.09 85.9374C311.798 85.9374 312.372 85.362 312.372 84.6523C312.372 83.9425 311.798 83.3672 311.09 83.3672C310.382 83.3672 309.808 83.9425 309.808 84.6523C309.808 85.362 310.382 85.9374 311.09 85.9374Z" fill="white"/>
<path d="M313.991 90.6561C314.699 90.6561 315.273 90.0808 315.273 89.371C315.273 88.6613 314.699 88.0859 313.991 88.0859C313.283 88.0859 312.709 88.6613 312.709 89.371C312.709 90.0808 313.283 90.6561 313.991 90.6561Z" fill="white"/>
<path d="M314.15 96.1757C314.858 96.1757 315.432 95.6003 315.432 94.8906C315.432 94.1808 314.858 93.6055 314.15 93.6055C313.442 93.6055 312.868 94.1808 312.868 94.8906C312.868 95.6003 313.442 96.1757 314.15 96.1757Z" fill="white"/>
<path d="M308.526 91.4491C309.234 91.4491 309.808 90.8737 309.808 90.164C309.808 89.4543 309.234 88.8789 308.526 88.8789C307.818 88.8789 307.244 89.4543 307.244 90.164C307.244 90.8737 307.818 91.4491 308.526 91.4491Z" fill="white"/>
<path d="M318.988 93.0389C319.696 93.0389 320.27 92.4636 320.27 91.7538C320.27 91.0441 319.696 90.4688 318.988 90.4688C318.28 90.4688 317.706 91.0441 317.706 91.7538C317.706 92.4636 318.28 93.0389 318.988 93.0389Z" fill="white"/>
</svg>
