<svg width="420" height="411" viewBox="0 0 420 411" fill="none" xmlns="http://www.w3.org/2000/svg">
<g filter="url(#filter0_d)">
<rect x="30" y="26" width="360" height="351" fill="white"/>
</g>
<path d="M175.857 194.486H173.319V188.132H171.465V204.404H173.319V196.016H175.857V194.486ZM168.351 191.264H169.935V189.77H160.953V191.264H162.537V198.968H160.539L160.737 200.498C163.563 200.498 167.325 200.462 170.691 199.886L170.583 198.518C169.863 198.608 169.125 198.68 168.351 198.752V191.264ZM164.337 191.264H166.551V198.842C165.813 198.896 165.057 198.914 164.337 198.932V191.264ZM190.328 188.132H188.474V197.834H190.328V188.132ZM178.052 189.158V190.67H183.596C183.542 191.228 183.416 191.714 183.254 192.2L177.242 192.452L177.512 193.928L182.48 193.55C181.472 194.846 179.852 195.872 177.314 196.574L178.016 198.05C183.326 196.52 185.558 193.514 185.558 189.158H178.052ZM184.928 198.068C181.526 198.068 179.402 199.256 179.402 201.236C179.402 203.198 181.526 204.386 184.928 204.386C188.312 204.386 190.418 203.198 190.418 201.236C190.418 199.256 188.312 198.068 184.928 198.068ZM184.928 202.946C182.606 202.946 181.256 202.316 181.256 201.236C181.256 200.138 182.606 199.544 184.928 199.544C187.25 199.544 188.564 200.138 188.564 201.236C188.564 202.316 187.25 202.946 184.928 202.946ZM203.466 193.982H205.122V198.176H206.886V188.15H205.122V192.47H203.466V188.366H201.72V197.96H203.466V193.982ZM201.144 189.878H198.012V188.222H196.194V189.878H193.044V191.336H201.144V189.878ZM197.112 197.6C199.164 197.6 200.604 196.484 200.604 194.792C200.604 193.136 199.164 192.002 197.112 192.002C195.096 192.002 193.638 193.136 193.638 194.792C193.638 196.484 195.096 197.6 197.112 197.6ZM197.112 193.352C198.21 193.352 198.948 193.91 198.948 194.792C198.948 195.71 198.21 196.25 197.112 196.25C196.014 196.25 195.294 195.71 195.294 194.792C195.294 193.91 196.014 193.352 197.112 193.352ZM205.014 198.68H203.196V199.13C203.196 200.282 202.494 201.704 201.072 202.604C199.704 201.758 199.056 200.426 199.056 199.13V198.68H197.256V199.13C197.256 200.606 196.158 202.154 194.106 202.82L194.988 204.188C196.5 203.666 197.544 202.676 198.138 201.452C198.642 202.694 199.596 203.792 201.108 204.35C202.62 203.756 203.556 202.622 204.078 201.38C204.636 202.676 205.698 203.666 207.282 204.188L208.164 202.82C206.076 202.19 205.014 200.696 205.014 199.13V198.68ZM223.247 192.992C220.025 192.56 217.631 190.814 217.631 188.924V188.294H215.723V188.924C215.723 190.814 213.347 192.56 210.107 192.992L210.791 194.432C213.473 194.072 215.597 192.884 216.677 191.156C217.757 192.884 219.899 194.072 222.581 194.432L223.247 192.992ZM209.315 195.404V196.88H224.039V195.404H209.315ZM220.295 199.544H212.969V197.888H211.133V204.188H222.149V197.888H220.295V199.544ZM220.295 202.712H212.969V200.966H220.295V202.712ZM237.106 188.132V204.386H238.96V188.132H237.106ZM228.322 189.716H226.486V200.282H227.872C230.41 200.282 232.984 200.084 235.81 199.508L235.612 197.96C233.002 198.482 230.644 198.68 228.322 198.698V189.716ZM256.85 194.378H254.312V188.114H252.458V204.404H254.312V195.908H256.85V194.378ZM244.232 191.174H249.938V189.662H242.378V200.408H243.71C246.644 200.408 248.858 200.3 251.306 199.868L251.108 198.338C248.858 198.716 246.824 198.86 244.232 198.86V191.174ZM261.151 189.446H259.063L259.117 191.57L259.405 199.292H260.791L261.151 189.446ZM261.169 203.234V201.002H259.045V203.234H261.169Z" fill="black"/>
<g filter="url(#filter1_d)">
<rect x="49" y="238" width="322" height="52" rx="12" fill="white"/>
</g>
<g filter="url(#filter2_d)">
<rect x="50" y="307" width="320" height="50" rx="9" stroke="#FF7134" stroke-width="2"/>
</g>
<path d="M331.88 259.453L338 265.56L344.12 259.453L346 261.333L338 269.333L330 261.333L331.88 259.453Z" fill="black"/>
<path d="M210.506 166.047C210.239 166.047 209.965 166 209.707 165.913L177.53 155.081C176.504 154.736 175.823 153.778 175.823 152.695C175.823 151.612 176.52 150.654 177.538 150.316L186.864 147.224C188.18 146.792 189.597 147.498 190.028 148.817C190.459 150.136 189.746 151.557 188.438 151.988L186.246 152.718L210.49 160.882L234.084 152.679L231.704 151.839C230.396 151.376 229.715 149.947 230.177 148.637C230.639 147.326 232.064 146.643 233.372 147.106L242.51 150.332C243.513 150.685 244.186 151.643 244.186 152.703C244.186 153.762 243.505 154.72 242.502 155.065L211.328 165.905C211.062 166 210.788 166.047 210.506 166.047Z" fill="black"/>
<path d="M210.004 150.175C190.701 150.175 175 134.436 175 115.087C175 95.7383 190.701 80 210.004 80C210.482 80 210.951 80.0157 211.421 80.0392C212.666 80.0863 213.684 81.0518 213.81 82.2921C214.53 89.286 220.137 94.6943 227.146 95.1496C228.438 95.2359 229.456 96.2956 229.487 97.5908C229.675 104.969 235.337 110.982 242.674 111.571C243.943 111.673 244.937 112.717 244.977 113.996L244.984 114.216C244.992 114.506 245 114.805 245 115.095C245.008 134.436 229.307 150.175 210.004 150.175ZM209.19 85.0315C193.027 85.4633 180.012 98.7839 180.012 115.087C180.012 131.666 193.465 145.151 210.004 145.151C226.151 145.151 239.362 132.293 239.973 116.249C231.922 114.624 225.767 108.07 224.655 99.8985C216.966 98.5249 210.873 92.6691 209.19 85.0315Z" fill="black"/>
<path d="M200.81 104.144C203.046 104.144 204.859 102.327 204.859 100.086C204.859 97.8443 203.046 96.0273 200.81 96.0273C198.574 96.0273 196.762 97.8443 196.762 100.086C196.762 102.327 198.574 104.144 200.81 104.144Z" fill="black"/>
<path d="M209.972 119.042C212.208 119.042 214.021 117.225 214.021 114.984C214.021 112.743 212.208 110.926 209.972 110.926C207.736 110.926 205.924 112.743 205.924 114.984C205.924 117.225 207.736 119.042 209.972 119.042Z" fill="black"/>
<path d="M210.473 136.468C212.709 136.468 214.522 134.651 214.522 132.41C214.522 130.168 212.709 128.352 210.473 128.352C208.237 128.352 206.425 130.168 206.425 132.41C206.425 134.651 208.237 136.468 210.473 136.468Z" fill="black"/>
<path d="M192.714 121.546C194.95 121.546 196.762 119.729 196.762 117.488C196.762 115.247 194.95 113.43 192.714 113.43C190.478 113.43 188.665 115.247 188.665 117.488C188.665 119.729 190.478 121.546 192.714 121.546Z" fill="black"/>
<path d="M225.753 126.57C227.989 126.57 229.801 124.753 229.801 122.511C229.801 120.27 227.989 118.453 225.753 118.453C223.517 118.453 221.704 120.27 221.704 122.511C221.704 124.753 223.517 126.57 225.753 126.57Z" fill="black"/>
<path d="M186.503 324.68H181.591V323.528H179.479V324.68H174.503V326.264H186.503V324.68ZM181.591 331.528V330.792C184.103 330.648 185.479 329.96 185.479 328.728C185.479 327.32 183.815 326.632 180.535 326.632C177.255 326.632 175.607 327.336 175.607 328.728C175.607 329.96 176.967 330.648 179.479 330.792V331.528H173.863V333.16H187.207V331.528H181.591ZM177.863 328.728C177.863 328.232 178.663 328.056 180.535 328.056C182.407 328.056 183.207 328.232 183.207 328.728C183.207 329.224 182.407 329.416 180.535 329.416C178.663 329.416 177.863 329.224 177.863 328.728ZM175.431 338.2H185.607V333.928H175.431V338.2ZM177.495 335.48H183.527V336.648H177.495V335.48ZM194.933 324.376C191.845 324.376 189.445 326.072 189.445 328.648C189.445 331.208 191.845 332.904 194.933 332.904C198.037 332.904 200.437 331.208 200.437 328.648C200.437 326.072 198.037 324.376 194.933 324.376ZM194.933 326.104C196.933 326.104 198.373 327.048 198.373 328.648C198.373 330.216 196.933 331.176 194.933 331.176C192.949 331.176 191.509 330.216 191.509 328.648C191.509 327.048 192.949 326.104 194.933 326.104ZM188.277 334.888V336.616H201.621V334.888H188.277ZM210.388 335.032V332.84H214.852V331.144H206.308V329.496H214.516V324.584H204.196V326.264H212.436V327.848H204.212V332.84H208.276V335.032H202.676V336.76H216.02V335.032H210.388ZM233.98 329.256H231.916V323.624H229.804V338.344H231.916V331H233.98V329.256ZM221.052 325.144V326.856H225.868C225.484 330.136 223.676 332.44 220.236 334.216L221.42 335.832C226.332 333.352 227.996 329.576 227.996 325.144H221.052ZM244.923 323.624V338.36H247.051V323.624H244.923ZM235.595 325.16V326.84H240.507C240.203 330.104 238.571 332.424 234.811 334.216L235.915 335.88C241.147 333.368 242.667 329.656 242.667 325.16H235.595Z" fill="#FF7134"/>
<path d="M175.555 255.768V270.264H177.219V255.768H175.555ZM167.859 258.472H173.107V257.112H166.227V266.728H167.427C170.419 266.728 172.291 266.648 174.387 266.264L174.211 264.888C172.275 265.272 170.547 265.352 167.859 265.352V258.472ZM190.385 255.784V264.792H191.953V255.784H190.385ZM187.537 264.696H189.089V256.056H187.537V259.352H185.953V260.696H187.537V264.696ZM186.449 262.488C184.977 262.792 183.617 262.856 181.937 262.856V261.064H185.425V256.872H180.305V258.168H183.825V259.832H180.337V264.184H181.313C183.409 264.184 184.865 264.104 186.609 263.8L186.449 262.488ZM182.225 266.776H190.305V270.248H191.953V265.448H182.225V266.776ZM201.488 267.176V264.456H205.76V263.144H197.424V261.256H205.312V259.96H197.424V258.216H205.632V256.872H195.744V264.456H199.824V267.176H194.128V268.536H207.216V267.176H201.488ZM218.783 255.752V270.264H220.447V255.752H218.783ZM211.007 262.424H216.047V257.064H209.311V258.408H214.383V261.096H209.343V266.824H210.575C213.119 266.824 215.279 266.744 217.759 266.312L217.583 264.968C215.295 265.336 213.295 265.448 211.007 265.464V262.424ZM236.504 266.536H238.152V255.784H236.504V259.032H233.576V260.392H236.504V266.536ZM234.712 262.984C232.552 262.216 231.336 260.296 231.336 258.376V256.664H229.656V258.344C229.656 260.488 228.408 262.504 226.152 263.32L227.032 264.6C228.696 263.96 229.896 262.68 230.536 261.064C231.16 262.536 232.28 263.688 233.832 264.264L234.712 262.984ZM230.408 268.616V265.4H228.744V269.96H238.488V268.616H230.408ZM251.239 255.784V259.448H249.639V256.056H248.103V264.472H249.639V260.792H251.239V264.568H252.807V255.784H251.239ZM247.207 262.2C245.799 262.456 244.551 262.552 242.727 262.552V260.936H246.599V259.656H242.727V258.136H246.759V256.808H241.127V263.896H242.103C244.359 263.896 245.719 263.848 247.383 263.544L247.207 262.2ZM242.999 266.6H251.159V270.248H252.807V265.272H242.999V266.6Z" fill="black"/>
<defs>
<filter id="filter0_d" x="0" y="0" width="420" height="411" filterUnits="userSpaceOnUse" color-interpolation-filters="sRGB">
<feFlood flood-opacity="0" result="BackgroundImageFix"/>
<feColorMatrix in="SourceAlpha" type="matrix" values="0 0 0 0 0 0 0 0 0 0 0 0 0 0 0 0 0 0 127 0"/>
<feOffset dy="4"/>
<feGaussianBlur stdDeviation="15"/>
<feColorMatrix type="matrix" values="0 0 0 0 0 0 0 0 0 0 0 0 0 0 0 0 0 0 0.1 0"/>
<feBlend mode="normal" in2="BackgroundImageFix" result="effect1_dropShadow"/>
<feBlend mode="normal" in="SourceGraphic" in2="effect1_dropShadow" result="shape"/>
</filter>
<filter id="filter1_d" x="37" y="226" width="346" height="76" filterUnits="userSpaceOnUse" color-interpolation-filters="sRGB">
<feFlood flood-opacity="0" result="BackgroundImageFix"/>
<feColorMatrix in="SourceAlpha" type="matrix" values="0 0 0 0 0 0 0 0 0 0 0 0 0 0 0 0 0 0 127 0"/>
<feOffset/>
<feGaussianBlur stdDeviation="6"/>
<feColorMatrix type="matrix" values="0 0 0 0 0 0 0 0 0 0 0 0 0 0 0 0 0 0 0.13 0"/>
<feBlend mode="normal" in2="BackgroundImageFix" result="effect1_dropShadow"/>
<feBlend mode="normal" in="SourceGraphic" in2="effect1_dropShadow" result="shape"/>
</filter>
<filter id="filter2_d" x="37" y="294" width="346" height="76" filterUnits="userSpaceOnUse" color-interpolation-filters="sRGB">
<feFlood flood-opacity="0" result="BackgroundImageFix"/>
<feColorMatrix in="SourceAlpha" type="matrix" values="0 0 0 0 0 0 0 0 0 0 0 0 0 0 0 0 0 0 127 0"/>
<feOffset/>
<feGaussianBlur stdDeviation="6"/>
<feColorMatrix type="matrix" values="0 0 0 0 0 0 0 0 0 0 0 0 0 0 0 0 0 0 0.13 0"/>
<feBlend mode="normal" in2="BackgroundImageFix" result="effect1_dropShadow"/>
<feBlend mode="normal" in="SourceGraphic" in2="effect1_dropShadow" result="shape"/>
</filter>
</defs>
</svg>
