<svg width="361" height="481" viewBox="0 0 361 481" fill="none" xmlns="http://www.w3.org/2000/svg">
<g filter="url(#filter0_d)">
<rect x="21" y="20" width="320" height="57" rx="10" fill="white" fill-opacity="0.95"/>
</g>
<path d="M303.41 45L308 49.58L312.59 45L314 46.41L308 52.41L302 46.41L303.41 45Z" fill="#333333"/>
<g filter="url(#filter1_d)">
<rect x="20" y="89" width="320" height="370" rx="10" fill="white"/>
</g>
<rect x="35" y="158" width="268" height="40" rx="8" fill="#F3F3F3"/>
<ellipse cx="280" cy="177.18" rx="7" ry="6.86378" fill="#FF7134"/>
<path d="M56.8859 403.61V408.98H55.3709V403.865H53.9309V416.525H55.3709V410.24H56.8859V417.155H58.3559V403.61H56.8859ZM50.9609 404.84H49.4759V407.3C49.4759 409.61 48.5309 412.025 46.5809 413.18L47.5559 414.335C48.8759 413.555 49.7309 412.19 50.2259 410.495C50.6909 411.995 51.5009 413.255 52.7609 413.96L53.6759 412.745C51.8309 411.71 50.9609 409.49 50.9609 407.195V404.84ZM72.9292 403.595V417.185H74.4892V403.595H72.9292ZM65.7142 406.13H70.6342V404.855H64.1842V413.87H65.3092C68.1142 413.87 69.8692 413.795 71.8342 413.435L71.6692 412.145C69.8542 412.505 68.2342 412.58 65.7142 412.58V406.13ZM86.833 403.61V412.055H88.303V403.61H86.833ZM84.163 411.965H85.618V403.865H84.163V406.955H82.678V408.215H84.163V411.965ZM83.143 409.895C81.763 410.18 80.488 410.24 78.913 410.24V408.56H82.183V404.63H77.383V405.845H80.683V407.405H77.413V411.485H78.328C80.293 411.485 81.658 411.41 83.293 411.125L83.143 409.895ZM79.183 413.915H86.758V417.17H88.303V412.67H79.183V413.915ZM97.2419 414.29V411.74H101.247V410.51H93.4319V408.74H100.827V407.525H93.4319V405.89H101.127V404.63H91.8569V411.74H95.6819V414.29H90.3419V415.565H102.612V414.29H97.2419ZM113.456 403.58V417.185H115.016V403.58H113.456ZM106.166 409.835H110.891V404.81H104.576V406.07H109.331V408.59H104.606V413.96H105.761C108.146 413.96 110.171 413.885 112.496 413.48L112.331 412.22C110.186 412.565 108.311 412.67 106.166 412.685V409.835ZM130.474 403.595V417.14H131.944V403.595H130.474ZM127.744 408.365H125.749V409.625H127.744V416.495H129.199V403.865H127.744V408.365ZM124.504 406.355H126.739V405.08H120.619V406.355H123.004V407.33C123.004 409.745 122.104 412.19 120.184 413.39L121.114 414.53C122.434 413.69 123.289 412.295 123.769 410.54C124.249 412.115 125.089 413.435 126.364 414.2L127.264 413.075C125.359 411.995 124.504 409.61 124.504 407.33V406.355ZM140.778 410.36V408.845H144.573V404.15H135.438V408.845H139.218V410.36H133.878V411.605H146.148V410.36H140.778ZM136.953 405.38H143.058V407.615H136.953V405.38ZM135.258 414.05H143.088V417.155H144.633V412.805H135.258V414.05ZM153.512 408.485C156.617 408.485 158.342 407.66 158.342 406.16C158.342 404.645 156.617 403.82 153.512 403.82C150.392 403.82 148.682 404.645 148.682 406.16C148.682 407.66 150.392 408.485 153.512 408.485ZM153.512 404.975C155.627 404.975 156.737 405.38 156.737 406.16C156.737 406.925 155.627 407.33 153.512 407.33C151.397 407.33 150.287 406.925 150.287 406.16C150.287 405.38 151.397 404.975 153.512 404.975ZM147.377 409.28V410.51H159.647V409.28H147.377ZM150.392 414.725H158.102V411.485H148.832V412.655H156.587V413.63H148.862V417.035H158.492V415.85H150.392V414.725ZM173.56 403.61V410.885H175.105V403.61H173.56ZM167.8 404.225C165.715 404.225 164.2 405.515 164.2 407.375C164.2 409.235 165.715 410.525 167.8 410.525C169.87 410.525 171.385 409.235 171.385 407.375C171.385 405.515 169.87 404.225 167.8 404.225ZM167.8 405.5C169.015 405.5 169.885 406.235 169.885 407.375C169.885 408.515 169.015 409.25 167.8 409.25C166.54 409.25 165.715 408.515 165.715 407.375C165.715 406.235 166.54 405.5 167.8 405.5ZM166.255 411.515V416.99H175.105V411.515H173.575V413.015H167.785V411.515H166.255ZM167.785 414.215H173.575V415.745H167.785V414.215ZM187.119 403.61V405.56H184.689V406.805H187.119V408.395H184.689V409.64H187.119V411.95H188.664V403.61H187.119ZM184.479 409.88C183.009 410.12 181.779 410.195 179.499 410.195V408.44H183.834V404.39H177.954V405.635H182.304V407.255H177.984V411.455H178.974C181.599 411.455 183.039 411.41 184.644 411.125L184.479 409.88ZM179.499 413.885H187.119V417.185H188.664V412.625H179.499V413.885ZM203.543 409.055H201.458V403.61H199.898V417.17H201.458V410.345H203.543V409.055ZM195.638 403.805H194.093V405.695H190.868V406.955H198.803V405.695H195.638V403.805ZM194.888 407.915C192.923 407.915 191.528 409.22 191.528 411.08C191.528 412.94 192.923 414.245 194.888 414.245C196.808 414.245 198.248 412.94 198.248 411.08C198.248 409.22 196.808 407.915 194.888 407.915ZM194.888 412.97C193.793 412.97 192.998 412.22 192.998 411.08C192.998 409.94 193.793 409.19 194.888 409.19C195.983 409.19 196.778 409.94 196.778 411.08C196.778 412.22 195.983 412.97 194.888 412.97ZM214.536 403.61V417.155H216.006V403.61H214.536ZM211.776 408.35H209.781V409.61H211.776V416.525H213.231V403.865H211.776V408.35ZM208.596 404.855H207.096V407.3C207.096 409.61 206.166 412.025 204.246 413.18L205.191 414.35C206.511 413.555 207.381 412.16 207.861 410.465C208.326 411.98 209.106 413.285 210.366 414.05L211.236 412.85C209.421 411.68 208.596 409.43 208.596 407.225V404.855ZM227.315 414.23V410.705C228.395 410.09 229.04 409.13 229.04 407.93C229.04 405.77 226.94 404.39 224.06 404.39C221.165 404.39 219.08 405.77 219.08 407.93C219.08 409.13 219.725 410.105 220.805 410.705V414.23H217.94V415.49H230.21V414.23H227.315ZM224.06 405.605C226.1 405.605 227.525 406.505 227.525 407.93C227.525 409.37 226.1 410.27 224.06 410.27C222.005 410.27 220.58 409.37 220.58 407.93C220.58 406.505 222.005 405.605 224.06 405.605ZM222.35 411.29C222.875 411.41 223.445 411.47 224.06 411.47C224.66 411.47 225.245 411.41 225.77 411.275V414.23H222.35V411.29Z" fill="#B7B7B7"/>
<rect x="315" y="115" width="10" height="60" rx="5" fill="#F3F3F3"/>
<path d="M61.34 127.5V132.18H59.48V127.8H57.54V138.46H59.48V133.86H61.34V138.56H63.3V127.5H61.34ZM56.96 136.22C54.9 135.44 53.52 133.72 53.52 131.48V131.34H56.48V129.7H53.52V127.66H51.54V129.7H48.5V131.34H51.54V131.48C51.54 133.64 50.38 135.64 48.08 136.54L49.06 138.08C50.82 137.38 51.94 136.08 52.56 134.48C53.22 136 54.34 137.12 56.02 137.76L56.96 136.22ZM51.06 141.1H61.24V145.56H63.3V139.44H51.06V141.1Z" fill="#333333"/>
<path d="M60.8 168.46V186.58H62.88V168.46H60.8ZM51.18 171.84H57.74V170.14H49.14V182.16H50.64C54.38 182.16 56.72 182.06 59.34 181.58L59.12 179.86C56.7 180.34 54.54 180.44 51.18 180.44V171.84ZM82.8184 175.6H79.9984V168.48H77.9384V186.54H79.9984V177.3H82.8184V175.6ZM72.3384 171.98H76.1584V170.28H66.3384V171.98H70.2784V173.72C70.2784 176.7 68.4584 180.12 65.6784 181.46L66.8584 183.1C68.9584 182.08 70.5384 179.92 71.3384 177.4C72.1584 179.74 73.6984 181.68 75.7184 182.64L76.8584 181.02C74.1184 179.74 72.3384 176.5 72.3384 173.72V171.98ZM98.8969 168.48H96.8369V181.6H98.8969V168.48ZM93.9369 174.2C93.9369 171.54 91.8769 169.68 89.1569 169.68C86.4369 169.68 84.3569 171.54 84.3569 174.2C84.3569 176.82 86.4369 178.72 89.1569 178.72C91.8769 178.72 93.9369 176.82 93.9369 174.2ZM86.3769 174.2C86.3769 172.52 87.5569 171.46 89.1569 171.46C90.7369 171.46 91.9369 172.52 91.9369 174.2C91.9369 175.84 90.7369 176.94 89.1569 176.94C87.5569 176.94 86.3769 175.84 86.3769 174.2ZM89.1769 184.52V180.28H87.0969V186.2H99.4169V184.52H89.1769Z" fill="#333333"/>
<path d="M303.41 45L308 49.58L312.59 45L314 46.41L308 52.41L302 46.41L303.41 45Z" fill="#333333"/>
<path d="M130.231 46.486H127.693V40.132H125.839V56.404H127.693V48.016H130.231V46.486ZM115.669 52.336H123.283V41.716H115.669V52.336ZM117.505 43.192H121.447V50.86H117.505V43.192ZM142.812 40.114V56.422H144.684V40.114H142.812ZM136.026 41.32C133.632 41.32 131.85 43.552 131.85 47.044C131.85 50.572 133.632 52.786 136.026 52.786C138.456 52.786 140.22 50.572 140.22 47.044C140.22 43.552 138.456 41.32 136.026 41.32ZM136.026 42.994C137.466 42.994 138.438 44.506 138.438 47.044C138.438 49.654 137.466 51.13 136.026 51.13C134.586 51.13 133.632 49.654 133.632 47.044C133.632 44.506 134.586 42.994 136.026 42.994ZM148.768 46.54L149.002 48.052L158.596 47.566C158.506 48.79 158.326 50.032 157.984 51.49L159.82 51.652C160.54 48.25 160.54 46 160.54 43.642V41.68H149.218V43.174H158.722V43.642C158.722 44.488 158.74 45.298 158.686 46.162L148.768 46.54ZM147.508 52.75V54.28H162.196V52.75H147.508ZM171.969 52.948V50.176H177.045V48.682H167.307V46.414H176.685V41.266H165.453V42.76H174.849V44.938H165.489V50.176H170.115V52.948H163.707V54.478H178.431V52.948H171.969ZM196.963 40.132H195.109V51.94H196.963V40.132ZM192.499 45.28C192.499 42.886 190.645 41.212 188.197 41.212C185.749 41.212 183.877 42.886 183.877 45.28C183.877 47.638 185.749 49.348 188.197 49.348C190.645 49.348 192.499 47.638 192.499 45.28ZM185.695 45.28C185.695 43.768 186.757 42.814 188.197 42.814C189.619 42.814 190.699 43.768 190.699 45.28C190.699 46.756 189.619 47.746 188.197 47.746C186.757 47.746 185.695 46.756 185.695 45.28ZM188.215 54.568V50.752H186.343V56.08H197.431V54.568H188.215ZM211.397 40.096V46.072H208.283V47.602H211.397V56.404H213.269V40.096H211.397ZM202.343 47.584H207.365V46.108H202.343V43.066H208.031V41.536H200.489V52.606H201.767C204.683 52.606 206.771 52.552 209.075 52.12L208.913 50.626C206.789 50.968 204.917 51.094 202.343 51.094V47.584ZM227.956 40.132V50.266H229.72V40.132H227.956ZM224.752 50.158H226.498V40.438H224.752V44.146H222.97V45.658H224.752V50.158ZM223.528 47.674C221.872 48.016 220.342 48.088 218.452 48.088V46.072H222.376V41.356H216.616V42.814H220.576V44.686H216.652V49.582H217.75C220.108 49.582 221.746 49.492 223.708 49.15L223.528 47.674ZM218.776 52.498H227.866V56.404H229.72V51.004H218.776V52.498ZM243.776 52.228H245.63V40.132H243.776V42.4H240.752V43.912H243.776V45.658H240.752V47.152H243.776V52.228ZM241.742 48.538C239.312 47.584 237.962 45.37 237.962 43.048V41.032H236.072V43.048C236.072 45.514 234.668 47.8 232.13 48.754L233.138 50.212C235.01 49.474 236.342 48.07 237.044 46.198C237.746 47.926 238.988 49.276 240.716 49.996L241.742 48.538ZM236.918 54.568V51.058H235.046V56.08H246.008V54.568H236.918Z" fill="#333333"/>
<path d="M61.34 250.5V254.46H59.44V250.82H57.5V260.2H59.44V256.14H61.34V260.32H63.3V250.5H61.34ZM56.38 255.6C56.38 253.14 54.64 251.46 52.24 251.46C49.84 251.46 48.14 253.14 48.14 255.6C48.14 258.06 49.84 259.74 52.24 259.74C54.64 259.74 56.38 258.06 56.38 255.6ZM50 255.6C50 254.08 50.94 253.14 52.24 253.14C53.6 253.14 54.52 254.08 54.52 255.6C54.52 257.12 53.6 258.06 52.24 258.06C50.94 258.06 50 257.12 50 255.6ZM61.28 263.04H53.32V261.1H51.28V268.32H63.3V261.1H61.28V263.04ZM61.28 266.66H53.32V264.64H61.28V266.66ZM83.4911 250.48V257.54H81.4311V250.96H79.4911V267.7H81.4311V259.22H83.4911V268.54H85.4511V250.48H83.4911ZM70.7511 252.76V254.44H75.8111C75.5511 258 73.9311 261.06 69.9911 263.3L71.1911 264.76C76.2511 261.82 77.8511 257.56 77.8511 252.76H70.7511ZM102.19 254.18V250.48H100.13V259.74H102.19V255.88H104.73V254.18H102.19ZM97.2295 251.24H95.1895V253.62H90.7695V251.24H88.7095V259.14H97.2295V251.24ZM95.1895 257.5H90.7695V255.2H95.1895V257.5ZM92.5895 265.16H102.19V260.54H90.5295V262.14H100.15V263.64H90.5695V268.38H102.79V266.76H92.5895V265.16Z" fill="#333333"/>
<path d="M53.12 349.26C56.32 349.26 58.3 347.32 58.3 344.98C58.3 342.82 57.06 341.74 55.3 341L53.28 340.14C52.1 339.66 50.9 339.18 50.9 337.92C50.9 336.72 51.86 336.02 53.38 336.02C54.68 336.02 55.68 336.52 56.62 337.34L57.84 335.86C56.72 334.72 55.14 334 53.38 334C50.58 334 48.54 335.74 48.54 338.06C48.54 340.18 50.12 341.34 51.54 341.92L53.58 342.8C54.96 343.38 55.94 343.82 55.94 345.16C55.94 346.44 54.94 347.24 53.16 347.24C51.72 347.24 50.3 346.56 49.24 345.5L47.88 347.1C49.24 348.46 51.1 349.26 53.12 349.26ZM60.708 349H62.908V342.06C62.908 340.46 62.748 338.76 62.608 337.24H62.708L64.248 340.32L69.128 349H71.508V334.28H69.308V341.14C69.308 342.74 69.468 344.52 69.608 346.04H69.508L67.968 342.92L63.088 334.28H60.708V349ZM79.1755 349.26C82.3755 349.26 84.3555 347.32 84.3555 344.98C84.3555 342.82 83.1155 341.74 81.3555 341L79.3355 340.14C78.1555 339.66 76.9555 339.18 76.9555 337.92C76.9555 336.72 77.9155 336.02 79.4355 336.02C80.7355 336.02 81.7355 336.52 82.6755 337.34L83.8955 335.86C82.7755 334.72 81.1955 334 79.4355 334C76.6355 334 74.5955 335.74 74.5955 338.06C74.5955 340.18 76.1755 341.34 77.5955 341.92L79.6355 342.8C81.0155 343.38 81.9955 343.82 81.9955 345.16C81.9955 346.44 80.9955 347.24 79.2155 347.24C77.7755 347.24 76.3555 346.56 75.2955 345.5L73.9355 347.1C75.2955 348.46 77.1555 349.26 79.1755 349.26ZM106.716 339.54H103.896V332.48H101.836V350.56H103.896V341.24H106.716V339.54ZM90.5361 346.04H98.9961V334.24H90.5361V346.04ZM92.5761 335.88H96.9561V344.4H92.5761V335.88ZM121.375 332.46V350.54H123.355V332.46H121.375ZM117.635 339.46H115.235C115.695 337.92 115.835 336.32 115.835 334.56H108.855V336.22H113.855C113.795 337.1 113.675 337.92 113.455 338.74L107.975 339.06L108.255 340.84L112.895 340.34C112.035 342.34 110.515 344 107.935 345.44L109.095 346.88C111.915 345.28 113.595 343.32 114.615 341.14H117.635V349.66H119.555V332.9H117.635V339.46ZM140.793 332.5H138.733V343.56H140.793V332.5ZM136.913 340.36C134.533 340.74 132.453 340.84 128.973 340.84V338.9H135.053V337.28H128.973V335.42H135.573V333.76H126.933V342.48H128.433C132.273 342.48 134.553 342.42 137.113 342L136.913 340.36ZM134.773 343.82C130.973 343.82 128.653 345.06 128.653 347.18C128.653 349.3 130.973 350.54 134.773 350.54C138.573 350.54 140.893 349.3 140.893 347.18C140.893 345.06 138.573 343.82 134.773 343.82ZM134.773 348.94C132.193 348.94 130.713 348.32 130.713 347.18C130.713 346.04 132.193 345.42 134.773 345.42C137.353 345.42 138.833 346.04 138.833 347.18C138.833 348.32 137.353 348.94 134.773 348.94Z" fill="#333333"/>
<path d="M60.94 291.44V297.38H57.08V299.06H60.94V309.56H63.02V291.44H60.94ZM54.56 292.94H52.48V295.92C52.48 299.3 50.72 302.78 47.9 304.16L49.2 305.8C51.28 304.74 52.74 302.66 53.54 300.08C54.32 302.5 55.74 304.48 57.82 305.5L59.04 303.84C56.26 302.56 54.56 299.26 54.56 295.92V292.94ZM78.9384 291.44V298.02H75.1584V292.9H73.1384V297.44H68.7384V292.88H66.6984V305.16H75.1584V299.68H78.9384V309.58H81.0184V291.46L78.9384 291.44ZM73.1384 303.48H68.7384V299.06H73.1384V303.48ZM101.49 291.48V298.54H99.4295V291.96H97.4895V308.7H99.4295V300.22H101.49V309.54H103.45V291.48H101.49ZM88.7495 293.76V295.44H93.8095C93.5495 299 91.9295 302.06 87.9895 304.3L89.1895 305.76C94.2495 302.82 95.8495 298.56 95.8495 293.76H88.7495ZM120.188 295.18V291.48H118.128V300.74H120.188V296.88H122.728V295.18H120.188ZM115.228 292.24H113.188V294.62H108.768V292.24H106.708V300.14H115.228V292.24ZM113.188 298.5H108.768V296.2H113.188V298.5ZM110.588 306.16H120.188V301.54H108.528V303.14H118.148V304.64H108.568V309.38H120.788V307.76H110.588V306.16Z" fill="#333333"/>
<path d="M61.82 405.66C62.32 403.8 62.32 402.3 62.32 400.86V399.34H49.92V401H60.28C60.28 402.36 60.26 403.66 59.8 405.44L61.82 405.66ZM56.52 406.74V403.42H54.44V406.74H48.04V408.4H64.32V406.74H56.52ZM56.12 409.8C52.22 409.8 49.76 411.08 49.76 413.16C49.76 415.26 52.22 416.54 56.12 416.54C59.96 416.54 62.44 415.26 62.44 413.16C62.44 411.08 59.96 409.8 56.12 409.8ZM56.12 414.96C53.38 414.96 51.8 414.3 51.8 413.16C51.8 412.04 53.38 411.38 56.12 411.38C58.78 411.38 60.38 412.04 60.38 413.16C60.38 414.3 58.78 414.96 56.12 414.96ZM80.0984 403.76V398.48H78.0384V411.56H80.0984V405.46H82.6784V403.76H80.0984ZM66.7184 399.86V401.54H73.0184C72.6384 404.44 70.1984 406.72 65.9584 408L66.8184 409.64C72.0784 408.04 75.2584 404.64 75.2584 399.86H66.7184ZM70.7384 410.24H68.6584V416.2H80.8184V414.52H70.7384V410.24ZM100.99 407.2V411.78H103.05V398.5H100.99V401.16H96.6495C95.7895 400.2 94.5695 399.6 93.0495 399.6C90.3695 399.6 88.3295 401.52 88.3295 404.18C88.3295 406.84 90.3695 408.76 93.0495 408.76C94.5695 408.78 95.7895 408.18 96.6495 407.2H100.99ZM90.2895 404.18C90.2895 402.52 91.4695 401.42 93.0495 401.42C94.5895 401.42 95.7695 402.52 95.7695 404.18C95.7695 405.86 94.5895 406.98 93.0495 406.98C91.4695 406.98 90.2895 405.86 90.2895 404.18ZM100.99 402.84V405.52H97.5295C97.6695 405.18 97.7295 404.72 97.7295 404.18C97.7295 403.64 97.6695 403.18 97.5295 402.84H100.99ZM93.4095 414.52V410.44H91.3495V416.2H103.51V414.52H93.4095ZM107.448 405.68C110.668 405.46 113.088 404.58 114.228 403.06C115.368 404.58 117.828 405.46 121.048 405.68L121.608 404.14C117.988 403.92 115.848 402.96 115.448 401.52H120.788V399.98H115.268V398.4H113.208V399.98H107.708V401.52H113.028C112.628 402.96 110.508 403.92 106.848 404.14L107.448 405.68ZM122.408 407.88V406.34H106.108V407.88H113.208V409.28H108.008V410.8H118.348V412.06H108.048V416.38H120.888V414.84H110.088V413.48H120.368V409.28H115.268V407.88H122.408Z" fill="#333333"/>
<path d="M56.16 218.12C59.94 218.12 62.56 216.58 62.56 214.12C62.56 211.7 59.94 210.14 56.16 210.14C52.34 210.14 49.74 211.7 49.74 214.12C49.74 216.58 52.34 218.12 56.16 218.12ZM56.16 211.8C58.72 211.8 60.44 212.68 60.44 214.12C60.44 215.58 58.74 216.46 56.16 216.46C53.5 216.46 51.86 215.58 51.86 214.12C51.86 212.68 53.56 211.8 56.16 211.8ZM64.38 219.66H48V221.36H52V227.54H54.1V221.36H58.22V227.54H60.32V221.36H64.4L64.38 219.66ZM78.9384 209.46V215.92H75.3784V217.62H78.9384V227.56H80.9984V209.46H78.9384ZM72.4984 212.96H76.4184V211.28H66.5184V212.96H70.4184V214.42C70.4184 217.68 68.5984 221.12 65.8184 222.46L67.0384 224.1C69.1384 222.98 70.6984 220.84 71.4984 218.26C72.2984 220.68 73.8184 222.7 75.8984 223.72L77.0984 222.1C74.3184 220.82 72.4984 217.46 72.4984 214.42V212.96ZM102.97 209.48H100.91V222.6H102.97V209.48ZM98.0095 215.2C98.0095 212.54 95.9495 210.68 93.2295 210.68C90.5095 210.68 88.4295 212.54 88.4295 215.2C88.4295 217.82 90.5095 219.72 93.2295 219.72C95.9495 219.72 98.0095 217.82 98.0095 215.2ZM90.4495 215.2C90.4495 213.52 91.6295 212.46 93.2295 212.46C94.8095 212.46 96.0095 213.52 96.0095 215.2C96.0095 216.84 94.8095 217.94 93.2295 217.94C91.6295 217.94 90.4495 216.84 90.4495 215.2ZM93.2495 225.52V221.28H91.1695V227.2H103.49V225.52H93.2495ZM119.008 209.44V216.08H115.548V217.78H119.008V227.56H121.088V209.44H119.008ZM108.948 217.76H114.528V216.12H108.948V212.74H115.268V211.04H106.888V223.34H108.308C111.548 223.34 113.868 223.28 116.428 222.8L116.248 221.14C113.888 221.52 111.808 221.66 108.948 221.66V217.76ZM137.646 209.48V227.54H139.626V209.48H137.646ZM134.106 216.22H131.966V218.04H134.106V226.64H136.046V209.88H134.106V216.22ZM131.126 213.32H132.466V211.66H124.246V213.32H125.546V221.54H123.886L124.126 223.24C126.426 223.24 130.106 223.14 132.946 222.6L132.806 221.1C132.266 221.18 131.706 221.24 131.126 221.3V213.32ZM127.426 213.32H129.246V221.42C128.626 221.48 128.046 221.48 127.426 221.5V213.32ZM154.865 209.46V227.58H156.945V209.46H154.865ZM147.325 210.8C144.665 210.8 142.685 213.28 142.685 217.16C142.685 221.08 144.665 223.54 147.325 223.54C150.025 223.54 151.985 221.08 151.985 217.16C151.985 213.28 150.025 210.8 147.325 210.8ZM147.325 212.66C148.925 212.66 150.005 214.34 150.005 217.16C150.005 220.06 148.925 221.7 147.325 221.7C145.725 221.7 144.665 220.06 144.665 217.16C144.665 214.34 145.725 212.66 147.325 212.66ZM175.743 218.3C172.183 217.66 169.283 214.88 169.283 212V210.64H167.103V212C167.103 214.82 164.203 217.66 160.643 218.3L161.523 220C164.463 219.42 167.003 217.5 168.183 215.04C169.363 217.5 171.903 219.42 174.843 220L175.743 218.3ZM160.083 223.52V225.22H176.443V223.52H160.083Z" fill="#333333"/>
<path d="M61.34 373.5V378.18H59.48V373.8H57.54V384.46H59.48V379.86H61.34V384.56H63.3V373.5H61.34ZM56.96 382.22C54.9 381.44 53.52 379.72 53.52 377.48V377.34H56.48V375.7H53.52V373.66H51.54V375.7H48.5V377.34H51.54V377.48C51.54 379.64 50.38 381.64 48.08 382.54L49.06 384.08C50.82 383.38 51.94 382.08 52.56 380.48C53.22 382 54.34 383.12 56.02 383.76L56.96 382.22ZM51.06 387.1H61.24V391.56H63.3V385.44H51.06V387.1ZM79.2711 387.64V383.56H84.5511V374.92H71.9111V383.56H77.2111V387.64H70.0911V389.32H86.4511V387.64H79.2711ZM73.9311 376.56H82.5311V381.92H73.9311V376.56ZM96.2495 373.86C92.3095 373.86 89.8095 375.16 89.8095 377.32C89.8095 379.46 92.3095 380.78 96.2495 380.78C100.19 380.78 102.69 379.46 102.69 377.32C102.69 375.16 100.19 373.86 96.2495 373.86ZM96.2495 375.46C98.9895 375.46 100.55 376.12 100.55 377.32C100.55 378.52 98.9895 379.16 96.2495 379.16C93.5095 379.16 91.9295 378.52 91.9295 377.32C91.9295 376.12 93.5095 375.46 96.2495 375.46ZM88.0695 382.1V383.74H104.41V382.1H88.0695ZM90.0295 385.28V391.32H102.43V385.28H90.0295ZM100.41 386.92V389.68H92.0695V386.92H100.41Z" fill="#333333"/>
<path d="M56.8859 403.61V408.98H55.3709V403.865H53.9309V416.525H55.3709V410.24H56.8859V417.155H58.3559V403.61H56.8859ZM50.9609 404.84H49.4759V407.3C49.4759 409.61 48.5309 412.025 46.5809 413.18L47.5559 414.335C48.8759 413.555 49.7309 412.19 50.2259 410.495C50.6909 411.995 51.5009 413.255 52.7609 413.96L53.6759 412.745C51.8309 411.71 50.9609 409.49 50.9609 407.195V404.84ZM72.9292 403.595V417.185H74.4892V403.595H72.9292ZM65.7142 406.13H70.6342V404.855H64.1842V413.87H65.3092C68.1142 413.87 69.8692 413.795 71.8342 413.435L71.6692 412.145C69.8542 412.505 68.2342 412.58 65.7142 412.58V406.13ZM86.833 403.61V412.055H88.303V403.61H86.833ZM84.163 411.965H85.618V403.865H84.163V406.955H82.678V408.215H84.163V411.965ZM83.143 409.895C81.763 410.18 80.488 410.24 78.913 410.24V408.56H82.183V404.63H77.383V405.845H80.683V407.405H77.413V411.485H78.328C80.293 411.485 81.658 411.41 83.293 411.125L83.143 409.895ZM79.183 413.915H86.758V417.17H88.303V412.67H79.183V413.915ZM97.2419 414.29V411.74H101.247V410.51H93.4319V408.74H100.827V407.525H93.4319V405.89H101.127V404.63H91.8569V411.74H95.6819V414.29H90.3419V415.565H102.612V414.29H97.2419ZM113.456 403.58V417.185H115.016V403.58H113.456ZM106.166 409.835H110.891V404.81H104.576V406.07H109.331V408.59H104.606V413.96H105.761C108.146 413.96 110.171 413.885 112.496 413.48L112.331 412.22C110.186 412.565 108.311 412.67 106.166 412.685V409.835ZM130.474 403.595V417.14H131.944V403.595H130.474ZM127.744 408.365H125.749V409.625H127.744V416.495H129.199V403.865H127.744V408.365ZM124.504 406.355H126.739V405.08H120.619V406.355H123.004V407.33C123.004 409.745 122.104 412.19 120.184 413.39L121.114 414.53C122.434 413.69 123.289 412.295 123.769 410.54C124.249 412.115 125.089 413.435 126.364 414.2L127.264 413.075C125.359 411.995 124.504 409.61 124.504 407.33V406.355ZM140.778 410.36V408.845H144.573V404.15H135.438V408.845H139.218V410.36H133.878V411.605H146.148V410.36H140.778ZM136.953 405.38H143.058V407.615H136.953V405.38ZM135.258 414.05H143.088V417.155H144.633V412.805H135.258V414.05ZM153.512 408.485C156.617 408.485 158.342 407.66 158.342 406.16C158.342 404.645 156.617 403.82 153.512 403.82C150.392 403.82 148.682 404.645 148.682 406.16C148.682 407.66 150.392 408.485 153.512 408.485ZM153.512 404.975C155.627 404.975 156.737 405.38 156.737 406.16C156.737 406.925 155.627 407.33 153.512 407.33C151.397 407.33 150.287 406.925 150.287 406.16C150.287 405.38 151.397 404.975 153.512 404.975ZM147.377 409.28V410.51H159.647V409.28H147.377ZM150.392 414.725H158.102V411.485H148.832V412.655H156.587V413.63H148.862V417.035H158.492V415.85H150.392V414.725ZM173.56 403.61V410.885H175.105V403.61H173.56ZM167.8 404.225C165.715 404.225 164.2 405.515 164.2 407.375C164.2 409.235 165.715 410.525 167.8 410.525C169.87 410.525 171.385 409.235 171.385 407.375C171.385 405.515 169.87 404.225 167.8 404.225ZM167.8 405.5C169.015 405.5 169.885 406.235 169.885 407.375C169.885 408.515 169.015 409.25 167.8 409.25C166.54 409.25 165.715 408.515 165.715 407.375C165.715 406.235 166.54 405.5 167.8 405.5ZM166.255 411.515V416.99H175.105V411.515H173.575V413.015H167.785V411.515H166.255ZM167.785 414.215H173.575V415.745H167.785V414.215ZM187.119 403.61V405.56H184.689V406.805H187.119V408.395H184.689V409.64H187.119V411.95H188.664V403.61H187.119ZM184.479 409.88C183.009 410.12 181.779 410.195 179.499 410.195V408.44H183.834V404.39H177.954V405.635H182.304V407.255H177.984V411.455H178.974C181.599 411.455 183.039 411.41 184.644 411.125L184.479 409.88ZM179.499 413.885H187.119V417.185H188.664V412.625H179.499V413.885ZM203.543 409.055H201.458V403.61H199.898V417.17H201.458V410.345H203.543V409.055ZM195.638 403.805H194.093V405.695H190.868V406.955H198.803V405.695H195.638V403.805ZM194.888 407.915C192.923 407.915 191.528 409.22 191.528 411.08C191.528 412.94 192.923 414.245 194.888 414.245C196.808 414.245 198.248 412.94 198.248 411.08C198.248 409.22 196.808 407.915 194.888 407.915ZM194.888 412.97C193.793 412.97 192.998 412.22 192.998 411.08C192.998 409.94 193.793 409.19 194.888 409.19C195.983 409.19 196.778 409.94 196.778 411.08C196.778 412.22 195.983 412.97 194.888 412.97ZM214.536 403.61V417.155H216.006V403.61H214.536ZM211.776 408.35H209.781V409.61H211.776V416.525H213.231V403.865H211.776V408.35ZM208.596 404.855H207.096V407.3C207.096 409.61 206.166 412.025 204.246 413.18L205.191 414.35C206.511 413.555 207.381 412.16 207.861 410.465C208.326 411.98 209.106 413.285 210.366 414.05L211.236 412.85C209.421 411.68 208.596 409.43 208.596 407.225V404.855ZM227.315 414.23V410.705C228.395 410.09 229.04 409.13 229.04 407.93C229.04 405.77 226.94 404.39 224.06 404.39C221.165 404.39 219.08 405.77 219.08 407.93C219.08 409.13 219.725 410.105 220.805 410.705V414.23H217.94V415.49H230.21V414.23H227.315ZM224.06 405.605C226.1 405.605 227.525 406.505 227.525 407.93C227.525 409.37 226.1 410.27 224.06 410.27C222.005 410.27 220.58 409.37 220.58 407.93C220.58 406.505 222.005 405.605 224.06 405.605ZM222.35 411.29C222.875 411.41 223.445 411.47 224.06 411.47C224.66 411.47 225.245 411.41 225.77 411.275V414.23H222.35V411.29Z" fill="#B7B7B7"/>
<rect x="35" y="398" width="204" height="46" rx="8" fill="#F3F3F3"/>
<rect x="20" y="342" width="320" height="56" fill="url(#paint0_linear)"/>
<rect x="250" y="399" width="74" height="44" rx="7" stroke="#FF7134" stroke-width="2"/>
<path d="M60.86 413.61V418.98H59.345V413.865H57.905V426.525H59.345V420.24H60.86V427.155H62.33V413.61H60.86ZM54.935 414.84H53.45V417.3C53.45 419.61 52.505 422.025 50.555 423.18L51.53 424.335C52.85 423.555 53.705 422.19 54.2 420.495C54.665 421.995 55.475 423.255 56.735 423.96L57.65 422.745C55.805 421.71 54.935 419.49 54.935 417.195V414.84ZM76.9033 413.595V427.185H78.4633V413.595H76.9033ZM69.6883 416.13H74.6083V414.855H68.1583V423.87H69.2833C72.0883 423.87 73.8433 423.795 75.8083 423.435L75.6433 422.145C73.8283 422.505 72.2083 422.58 69.6883 422.58V416.13ZM90.8071 413.61V422.055H92.2771V413.61H90.8071ZM88.1371 421.965H89.5921V413.865H88.1371V416.955H86.6521V418.215H88.1371V421.965ZM87.1171 419.895C85.7371 420.18 84.4621 420.24 82.8871 420.24V418.56H86.1571V414.63H81.3571V415.845H84.6571V417.405H81.3871V421.485H82.3021C84.2671 421.485 85.6321 421.41 87.2671 421.125L87.1171 419.895ZM83.1571 423.915H90.7321V427.17H92.2771V422.67H83.1571V423.915ZM101.216 424.29V421.74H105.221V420.51H97.406V418.74H104.801V417.525H97.406V415.89H105.101V414.63H95.831V421.74H99.656V424.29H94.316V425.565H106.586V424.29H101.216ZM117.43 413.58V427.185H118.99V413.58H117.43ZM110.14 419.835H114.865V414.81H108.55V416.07H113.305V418.59H108.58V423.96H109.735C112.12 423.96 114.145 423.885 116.47 423.48L116.305 422.22C114.16 422.565 112.285 422.67 110.14 422.685V419.835ZM131.223 419.64H134.043V421.59H135.588V413.61H134.043V415.695H131.223V414.615H124.953V420.72H131.223V419.64ZM129.723 419.49H126.468V415.845H129.723V419.49ZM134.043 416.955V418.38H131.223V416.955H134.043ZM131.073 421.965C128.253 421.965 126.513 422.925 126.513 424.56C126.513 426.195 128.253 427.155 131.073 427.155C133.908 427.155 135.648 426.195 135.648 424.56C135.648 422.925 133.908 421.965 131.073 421.965ZM131.073 425.955C129.138 425.955 128.058 425.46 128.058 424.56C128.058 423.66 129.138 423.18 131.073 423.18C133.008 423.18 134.103 423.66 134.103 424.56C134.103 425.46 133.008 425.955 131.073 425.955ZM143.987 418.485C147.092 418.485 148.817 417.66 148.817 416.16C148.817 414.645 147.092 413.82 143.987 413.82C140.867 413.82 139.157 414.645 139.157 416.16C139.157 417.66 140.867 418.485 143.987 418.485ZM143.987 414.975C146.102 414.975 147.212 415.38 147.212 416.16C147.212 416.925 146.102 417.33 143.987 417.33C141.872 417.33 140.762 416.925 140.762 416.16C140.762 415.38 141.872 414.975 143.987 414.975ZM137.852 419.28V420.51H150.122V419.28H137.852ZM140.867 424.725H148.577V421.485H139.307V422.655H147.062V423.63H139.337V427.035H148.967V425.85H140.867V424.725ZM164.035 413.61V420.885H165.58V413.61H164.035ZM158.275 414.225C156.19 414.225 154.675 415.515 154.675 417.375C154.675 419.235 156.19 420.525 158.275 420.525C160.345 420.525 161.86 419.235 161.86 417.375C161.86 415.515 160.345 414.225 158.275 414.225ZM158.275 415.5C159.49 415.5 160.36 416.235 160.36 417.375C160.36 418.515 159.49 419.25 158.275 419.25C157.015 419.25 156.19 418.515 156.19 417.375C156.19 416.235 157.015 415.5 158.275 415.5ZM156.73 421.515V426.99H165.58V421.515H164.05V423.015H158.26V421.515H156.73ZM158.26 424.215H164.05V425.745H158.26V424.215ZM177.594 413.61V415.56H175.164V416.805H177.594V418.395H175.164V419.64H177.594V421.95H179.139V413.61H177.594ZM174.954 419.88C173.484 420.12 172.254 420.195 169.974 420.195V418.44H174.309V414.39H168.429V415.635H172.779V417.255H168.459V421.455H169.449C172.074 421.455 173.514 421.41 175.119 421.125L174.954 419.88ZM169.974 423.885H177.594V427.185H179.139V422.625H169.974V423.885ZM194.018 419.055H191.933V413.61H190.373V427.17H191.933V420.345H194.018V419.055ZM186.113 413.805H184.568V415.695H181.343V416.955H189.278V415.695H186.113V413.805ZM185.363 417.915C183.398 417.915 182.003 419.22 182.003 421.08C182.003 422.94 183.398 424.245 185.363 424.245C187.283 424.245 188.723 422.94 188.723 421.08C188.723 419.22 187.283 417.915 185.363 417.915ZM185.363 422.97C184.268 422.97 183.473 422.22 183.473 421.08C183.473 419.94 184.268 419.19 185.363 419.19C186.458 419.19 187.253 419.94 187.253 421.08C187.253 422.22 186.458 422.97 185.363 422.97ZM205.012 413.61V427.155H206.482V413.61H205.012ZM202.252 418.35H200.257V419.61H202.252V426.525H203.707V413.865H202.252V418.35ZM199.072 414.855H197.572V417.3C197.572 419.61 196.642 422.025 194.722 423.18L195.667 424.35C196.987 423.555 197.857 422.16 198.337 420.465C198.802 421.98 199.582 423.285 200.842 424.05L201.712 422.85C199.897 421.68 199.072 419.43 199.072 417.225V414.855ZM217.791 424.23V420.705C218.871 420.09 219.516 419.13 219.516 417.93C219.516 415.77 217.416 414.39 214.536 414.39C211.641 414.39 209.556 415.77 209.556 417.93C209.556 419.13 210.201 420.105 211.281 420.705V424.23H208.416V425.49H220.686V424.23H217.791ZM214.536 415.605C216.576 415.605 218.001 416.505 218.001 417.93C218.001 419.37 216.576 420.27 214.536 420.27C212.481 420.27 211.056 419.37 211.056 417.93C211.056 416.505 212.481 415.605 214.536 415.605ZM212.826 421.29C213.351 421.41 213.921 421.47 214.536 421.47C215.136 421.47 215.721 421.41 216.246 421.275V424.23H212.826V421.29Z" fill="#B7B7B7"/>
<path d="M283.88 412.941V418.432H280.854V419.877H283.88V428.326H285.631V412.941H283.88ZM278.406 415.916H281.738V414.488H273.323V415.916H276.638V417.157C276.638 419.928 275.091 422.852 272.728 423.991L273.765 425.385C275.55 424.433 276.876 422.614 277.556 420.421C278.236 422.478 279.528 424.195 281.296 425.062L282.316 423.685C279.953 422.597 278.406 419.741 278.406 417.157V415.916ZM300.182 416.698V412.958H298.431V422.138H300.182V418.143H302.358V416.698H300.182ZM297.207 420.183C294.861 419.418 293.586 417.667 293.586 415.746V415.457H296.799V414.046H288.554V415.457H291.818V415.763C291.818 417.854 290.475 419.843 288.061 420.659L288.945 422.036C290.781 421.407 292.073 420.098 292.753 418.466C293.416 419.894 294.64 420.999 296.357 421.543L297.207 420.183ZM295.235 422.495C292.073 422.495 290.118 423.566 290.118 425.402C290.118 427.238 292.073 428.309 295.235 428.309C298.397 428.309 300.352 427.238 300.352 425.402C300.352 423.566 298.397 422.495 295.235 422.495ZM295.235 426.932C293.042 426.932 291.852 426.422 291.852 425.402C291.852 424.382 293.042 423.872 295.235 423.872C297.428 423.872 298.618 424.382 298.618 425.402C298.618 426.422 297.428 426.932 295.235 426.932Z" fill="#FF7134"/>
<defs>
<filter id="filter0_d" x="1" y="0" width="360" height="97" filterUnits="userSpaceOnUse" color-interpolation-filters="sRGB">
<feFlood flood-opacity="0" result="BackgroundImageFix"/>
<feColorMatrix in="SourceAlpha" type="matrix" values="0 0 0 0 0 0 0 0 0 0 0 0 0 0 0 0 0 0 127 0"/>
<feOffset/>
<feGaussianBlur stdDeviation="10"/>
<feColorMatrix type="matrix" values="0 0 0 0 0 0 0 0 0 0 0 0 0 0 0 0 0 0 0.15 0"/>
<feBlend mode="normal" in2="BackgroundImageFix" result="effect1_dropShadow"/>
<feBlend mode="normal" in="SourceGraphic" in2="effect1_dropShadow" result="shape"/>
</filter>
<filter id="filter1_d" x="0" y="71" width="360" height="410" filterUnits="userSpaceOnUse" color-interpolation-filters="sRGB">
<feFlood flood-opacity="0" result="BackgroundImageFix"/>
<feColorMatrix in="SourceAlpha" type="matrix" values="0 0 0 0 0 0 0 0 0 0 0 0 0 0 0 0 0 0 127 0"/>
<feOffset dy="2"/>
<feGaussianBlur stdDeviation="10"/>
<feColorMatrix type="matrix" values="0 0 0 0 0 0 0 0 0 0 0 0 0 0 0 0 0 0 0.15 0"/>
<feBlend mode="normal" in2="BackgroundImageFix" result="effect1_dropShadow"/>
<feBlend mode="normal" in="SourceGraphic" in2="effect1_dropShadow" result="shape"/>
</filter>
<linearGradient id="paint0_linear" x1="180" y1="342" x2="180" y2="398" gradientUnits="userSpaceOnUse">
<stop stop-color="white" stop-opacity="0"/>
<stop offset="0.71875" stop-color="white"/>
</linearGradient>
</defs>
</svg>
