<svg width="202" height="38" viewBox="0 0 202 38" fill="none" xmlns="http://www.w3.org/2000/svg">
<path d="M15.6798 38C15.5622 38 15.4411 37.9792 15.327 37.9411L1.11694 33.1573C0.663907 33.0048 0.363037 32.5818 0.363037 32.1035C0.363037 31.6251 0.670824 31.2022 1.1204 31.0531L5.23921 29.6873C5.8202 29.4966 6.44615 29.8086 6.63635 30.391C6.82656 30.9734 6.51186 31.6008 5.93432 31.7915L4.966 32.1139L15.6728 35.719L26.0926 32.0965L25.0413 31.7256C24.4638 31.5211 24.1629 30.8902 24.3669 30.3113C24.571 29.7324 25.2004 29.4308 25.7779 29.6353L29.8137 31.06C30.2564 31.216 30.5538 31.639 30.5538 32.1069C30.5538 32.5749 30.2529 32.9978 29.8103 33.1504L16.0429 37.9376C15.9253 37.9792 15.8042 38 15.6798 38Z" fill="white"/>
<path d="M15.4585 30.9907C6.93385 30.9907 0 24.0403 0 15.4953C0 6.95037 6.93385 0 15.4585 0C15.6695 0 15.877 0.00693304 16.0844 0.0173326C16.6343 0.0381317 17.0839 0.464513 17.1392 1.01222C17.4574 4.10089 19.9335 6.48932 23.0287 6.69038C23.5993 6.72851 24.0489 7.19649 24.0627 7.76847C24.1457 11.027 26.646 13.6823 29.8864 13.9423C30.4467 13.9874 30.8859 14.4485 30.9032 15.0135L30.9066 15.1106C30.9101 15.2388 30.9135 15.3705 30.9135 15.4988C30.917 24.0403 23.9832 30.9907 15.4585 30.9907ZM15.0988 2.22204C7.96096 2.4127 2.2133 8.29538 2.2133 15.4953C2.2133 22.8166 8.15462 28.7721 15.4585 28.7721C22.5895 28.7721 28.4236 23.0939 28.6933 16.0084C25.1382 15.2908 22.42 12.3963 21.9289 8.78762C18.5329 8.18098 15.8424 5.59496 15.0988 2.22204Z" fill="white"/>
<path d="M11.3985 10.663C12.386 10.663 13.1865 9.8606 13.1865 8.8708C13.1865 7.881 12.386 7.07861 11.3985 7.07861C10.4111 7.07861 9.6106 7.881 9.6106 8.8708C9.6106 9.8606 10.4111 10.663 11.3985 10.663Z" fill="white"/>
<path d="M15.4447 17.2425C16.4321 17.2425 17.2326 16.4401 17.2326 15.4503C17.2326 14.4605 16.4321 13.6581 15.4447 13.6581C14.4572 13.6581 13.6567 14.4605 13.6567 15.4503C13.6567 16.4401 14.4572 17.2425 15.4447 17.2425Z" fill="white"/>
<path d="M15.6661 24.9381C16.6535 24.9381 17.454 24.1357 17.454 23.1459C17.454 22.1561 16.6535 21.3537 15.6661 21.3537C14.6787 21.3537 13.8782 22.1561 13.8782 23.1459C13.8782 24.1357 14.6787 24.9381 15.6661 24.9381Z" fill="white"/>
<path d="M7.8226 18.3483C8.81004 18.3483 9.61053 17.5459 9.61053 16.5561C9.61053 15.5663 8.81004 14.7639 7.8226 14.7639C6.83515 14.7639 6.03467 15.5663 6.03467 16.5561C6.03467 17.5459 6.83515 18.3483 7.8226 18.3483Z" fill="white"/>
<path d="M22.4132 20.5669C23.4006 20.5669 24.2011 19.7645 24.2011 18.7747C24.2011 17.7849 23.4006 16.9825 22.4132 16.9825C21.4257 16.9825 20.6252 17.7849 20.6252 18.7747C20.6252 19.7645 21.4257 20.5669 22.4132 20.5669Z" fill="white"/>
<path d="M47.2367 27.3647C46.2787 27.3647 45.39 27.1879 44.5704 26.8378C43.7507 26.4876 43.0418 26.0127 42.4539 25.413C41.8625 24.8133 41.4026 24.1096 41.0671 23.3019C40.7317 22.4942 40.5657 21.6345 40.5657 20.7228V20.6743C40.5657 19.7626 40.7317 18.8994 41.0671 18.0848C41.4026 17.2702 41.8625 16.5595 42.4539 15.9494C43.0453 15.3428 43.7507 14.8644 44.5704 14.5108C45.3934 14.1607 46.296 13.9839 47.2851 13.9839C48.4955 13.9839 49.5019 14.1746 50.3007 14.5594C51.0961 14.9441 51.7982 15.4711 52.4068 16.1401L50.1831 18.5389C49.7681 18.1056 49.3428 17.7624 48.9036 17.5094C48.4644 17.2528 47.918 17.1246 47.2644 17.1246C46.8009 17.1246 46.3825 17.2182 46.009 17.4019C45.6355 17.5856 45.307 17.8387 45.0268 18.1576C44.7467 18.4765 44.5323 18.8474 44.3802 19.2738C44.228 19.6967 44.1519 20.1474 44.1519 20.6292V20.6778C44.1519 21.1735 44.228 21.638 44.3802 22.0678C44.5323 22.4977 44.7502 22.8755 45.0372 23.1945C45.3243 23.5134 45.6666 23.7664 46.0643 23.9502C46.462 24.1339 46.9082 24.2275 47.4027 24.2275C48.0079 24.2275 48.5405 24.1027 48.9935 23.8566C49.4465 23.6104 49.8996 23.2777 50.3457 22.8617L52.476 25.0213C51.8535 25.7077 51.1445 26.2727 50.3457 26.713C49.5468 27.1463 48.5128 27.3647 47.2367 27.3647Z" fill="white"/>
<path d="M60.6548 27.3647C59.6657 27.3647 58.7493 27.1914 57.9055 26.8482C57.0582 26.505 56.332 26.0336 55.7164 25.4338C55.1008 24.8341 54.6201 24.1304 54.2674 23.3227C53.9181 22.515 53.7417 21.6484 53.7417 20.7194V20.6709C53.7417 19.7453 53.9181 18.8752 54.2674 18.0675C54.6201 17.2598 55.1043 16.5526 55.7268 15.946C56.3492 15.3393 57.0824 14.861 57.9262 14.5074C58.77 14.1573 59.6969 13.9805 60.6998 13.9805C61.6888 13.9805 62.6053 14.1538 63.4491 14.497C64.2929 14.8402 65.0226 15.3116 65.6382 15.9113C66.2503 16.511 66.7345 17.2147 67.0837 18.0224C67.4365 18.8301 67.6094 19.6968 67.6094 20.6258V20.6743C67.6094 21.5999 67.433 22.47 67.0837 23.2777C66.7345 24.0854 66.2468 24.7925 65.6243 25.3992C65.0019 26.0058 64.2687 26.4877 63.4249 26.8378C62.5845 27.1914 61.6612 27.3647 60.6548 27.3647ZM60.7032 24.224C61.2289 24.224 61.6957 24.1339 62.1004 23.9467C62.5084 23.763 62.8543 23.5099 63.1413 23.191C63.4283 22.8721 63.6462 22.5012 63.7984 22.0748C63.9505 21.6519 64.0266 21.2012 64.0266 20.7194V20.6709C64.0266 20.1925 63.9471 19.7384 63.788 19.3154C63.6289 18.8925 63.3972 18.5181 63.0929 18.1888C62.7886 17.8595 62.4324 17.5995 62.0174 17.4089C61.6024 17.2182 61.1493 17.1211 60.6548 17.1211C60.1291 17.1211 59.6623 17.2147 59.2542 17.3985C58.8496 17.5822 58.5003 17.8352 58.2133 18.1542C57.9262 18.4731 57.7083 18.844 57.5562 19.2704C57.404 19.6933 57.3279 20.1439 57.3279 20.6258V20.6743C57.3279 21.1527 57.4075 21.6068 57.5666 22.0297C57.7256 22.4526 57.9573 22.8305 58.2617 23.1563C58.566 23.4857 58.9187 23.7457 59.3268 23.9363C59.7349 24.127 60.1914 24.224 60.7032 24.224Z" fill="white"/>
<path d="M76.0579 27.3647C75.0688 27.3647 74.1524 27.1914 73.3085 26.8482C72.4613 26.505 71.735 26.0336 71.1194 25.4338C70.5039 24.8341 70.0232 24.1304 69.6704 23.3227C69.3211 22.515 69.1448 21.6484 69.1448 20.7194V20.6709C69.1448 19.7453 69.3211 18.8752 69.6704 18.0675C70.0232 17.2598 70.5073 16.5526 71.1298 15.946C71.7523 15.3393 72.4855 14.861 73.3293 14.5074C74.1731 14.1573 75.0999 13.9805 76.1028 13.9805C77.0919 13.9805 78.0083 14.1538 78.8522 14.497C79.696 14.8402 80.4257 15.3116 81.0413 15.9113C81.6534 16.511 82.1375 17.2147 82.4868 18.0224C82.8396 18.8301 83.0125 19.6968 83.0125 20.6258V20.6743C83.0125 21.5999 82.8361 22.47 82.4868 23.2777C82.1375 24.0854 81.6499 24.7925 81.0274 25.3992C80.4049 26.0058 79.6718 26.4877 78.828 26.8378C77.9876 27.1914 77.0642 27.3647 76.0579 27.3647ZM76.1063 24.224C76.632 24.224 77.0988 24.1339 77.5034 23.9467C77.9115 23.763 78.2573 23.5099 78.5444 23.191C78.8314 22.8721 79.0493 22.5012 79.2015 22.0748C79.3536 21.6519 79.4297 21.2012 79.4297 20.7194V20.6709C79.4297 20.1925 79.3502 19.7384 79.1911 19.3154C79.032 18.8925 78.8003 18.5181 78.496 18.1888C78.1916 17.8595 77.8354 17.5995 77.4204 17.4089C77.0054 17.2182 76.5524 17.1211 76.0579 17.1211C75.5322 17.1211 75.0653 17.2147 74.6573 17.3985C74.2527 17.5822 73.9034 17.8352 73.6163 18.1542C73.3293 18.4731 73.1114 18.844 72.9593 19.2704C72.8071 19.6933 72.731 20.1439 72.731 20.6258V20.6743C72.731 21.1527 72.8105 21.6068 72.9696 22.0297C73.1287 22.4526 73.3604 22.8305 73.6647 23.1563C73.9691 23.4857 74.3218 23.7457 74.7299 23.9363C75.138 24.127 75.5945 24.224 76.1063 24.224Z" fill="white"/>
<path d="M92.5712 26.9521L88.615 21.475V26.9521H85.1187V9.60214H88.615V19.9878L92.3222 14.5593H96.6485L92.1493 20.7574L96.773 26.9555H92.5712V26.9521Z" fill="white"/>
<path d="M98.8723 14.5697H102.203V27.0769H98.8723V14.5697Z" fill="white"/>
<path d="M119.145 14.6841H120.988V17.1765C121.244 16.8091 121.528 16.4555 121.835 16.1227C122.147 15.7865 122.492 15.4953 122.876 15.2492C123.26 15.003 123.686 14.802 124.156 14.6494C124.626 14.4969 125.148 14.4207 125.722 14.4207C126.456 14.4207 127.178 14.5662 127.887 14.8505C128.596 15.1382 129.233 15.5577 129.789 16.1088C130.346 16.66 130.792 17.3325 131.128 18.1229C131.463 18.9133 131.629 19.8215 131.629 20.8441V20.8926C131.629 21.8979 131.463 22.8027 131.128 23.6C130.792 24.4008 130.35 25.0733 129.8 25.6279C129.25 26.1791 128.62 26.602 127.912 26.8967C127.203 27.1913 126.473 27.3404 125.722 27.3404C125.148 27.3404 124.623 27.2676 124.142 27.1254C123.665 26.9799 123.232 26.7892 122.852 26.55C122.468 26.3108 122.122 26.03 121.811 25.7111C121.5 25.3922 121.223 25.0559 120.985 24.7023V30.9109H119.141V14.6841H119.145ZM125.39 25.6868C125.982 25.6868 126.542 25.5794 127.078 25.3645C127.614 25.1495 128.074 24.8375 128.465 24.4285C128.856 24.0194 129.167 23.5203 129.399 22.931C129.63 22.3417 129.744 21.6691 129.744 20.9169V20.8684C129.744 20.1335 129.63 19.4714 129.399 18.8786C129.167 18.2858 128.852 17.7832 128.454 17.3672C128.057 16.9512 127.593 16.6323 127.068 16.407C126.542 16.1851 125.982 16.0707 125.394 16.0707C124.82 16.0707 124.267 16.1851 123.73 16.4174C123.194 16.6496 122.717 16.9755 122.295 17.4019C121.873 17.8248 121.538 18.3274 121.292 18.9133C121.043 19.4956 120.922 20.1404 120.922 20.8441V20.8926C120.922 21.6137 121.047 22.2689 121.292 22.8582C121.538 23.4509 121.873 23.9536 122.295 24.3696C122.717 24.7855 123.194 25.1079 123.73 25.3402C124.26 25.5724 124.816 25.6868 125.39 25.6868Z" fill="white"/>
<path d="M146.489 14.6842V27.077H144.857V24.6469C143.819 26.3074 142.063 27.3751 139.863 27.3751C136.377 27.3751 133.483 24.5499 133.483 20.8823C133.483 17.2147 136.377 14.3895 139.863 14.3895C142.063 14.3895 143.819 15.4537 144.857 17.1176V14.6876H146.489V14.6842ZM144.857 20.8823C144.857 18.1299 142.73 15.9737 139.984 15.9737C137.238 15.9737 135.112 18.1299 135.112 20.8823C135.112 23.6347 137.238 25.7909 139.984 25.7909C142.73 25.7909 144.857 23.6312 144.857 20.8823Z" fill="white"/>
<path d="M149.781 14.6841H151.625V17.9218C151.846 17.4088 152.126 16.9373 152.462 16.5075C152.797 16.0776 153.181 15.7033 153.61 15.3913C154.039 15.0793 154.509 14.8436 155.021 14.6841C155.533 14.5246 156.082 14.4518 156.67 14.4692V16.459H156.529C155.858 16.459 155.225 16.5803 154.627 16.8195C154.028 17.0587 153.506 17.4192 153.06 17.8976C152.614 18.3759 152.261 18.9722 152.009 19.6828C151.756 20.3935 151.625 21.215 151.625 22.1406V27.0804H149.781V14.6841Z" fill="white"/>
<path d="M166.578 27.0769L160.333 21.0417V27.0769H158.683V9.54324H160.333V20.0884L166.281 14.5524H168.529L162.083 20.5633L168.778 27.0769H166.578Z" fill="white"/>
<path d="M172.343 14.5697H170.503V27.0769H172.343V14.5697Z" fill="white"/>
<path d="M175.67 14.6841H177.513V16.8437C177.928 16.1712 178.471 15.6027 179.139 15.1313C179.81 14.6598 180.678 14.4241 181.746 14.4241C182.497 14.4241 183.161 14.5454 183.745 14.7846C184.326 15.0238 184.821 15.3635 185.229 15.8038C185.637 16.244 185.948 16.7675 186.163 17.3741C186.377 17.9807 186.484 18.6533 186.484 19.3882V27.0838H184.641V19.8527C184.641 18.7053 184.347 17.7936 183.756 17.1245C183.164 16.4555 182.32 16.1192 181.221 16.1192C180.695 16.1192 180.204 16.2094 179.751 16.3931C179.298 16.5768 178.904 16.8403 178.568 17.1835C178.233 17.5266 177.973 17.9392 177.79 18.4175C177.607 18.8959 177.517 19.4228 177.517 19.9948V27.0769H175.674V14.6841H175.67Z" fill="white"/>
<path d="M194.922 30.9629C193.885 30.9629 192.896 30.8173 191.955 30.5331C191.015 30.2454 190.129 29.812 189.299 29.2401L190.136 27.8015C190.855 28.3145 191.602 28.7028 192.384 28.9766C193.166 29.247 194.002 29.3822 194.895 29.3822C196.264 29.3822 197.357 29.0113 198.17 28.266C198.982 27.5241 199.39 26.4253 199.39 24.9693V23.5064C198.848 24.2275 198.187 24.8411 197.405 25.3506C196.624 25.8637 195.666 26.1167 194.535 26.1167C193.785 26.1167 193.065 25.9815 192.37 25.7112C191.675 25.4408 191.059 25.0525 190.517 24.5464C189.974 24.0438 189.538 23.4371 189.213 22.723C188.888 22.0089 188.722 21.2081 188.722 20.3138V20.2653C188.722 19.3536 188.884 18.5389 189.213 17.8214C189.541 17.1038 189.974 16.4902 190.517 15.9876C191.059 15.4849 191.682 15.0967 192.381 14.8263C193.083 14.5559 193.798 14.4172 194.535 14.4172C195.109 14.4172 195.638 14.4866 196.126 14.6218C196.613 14.757 197.049 14.9372 197.44 15.1625C197.831 15.3879 198.184 15.6513 198.505 15.9529C198.823 16.258 199.11 16.5769 199.366 16.9131V14.6842H201.206V24.9208C201.206 25.881 201.071 26.7234 200.801 27.4513C200.528 28.1793 200.141 28.7964 199.629 29.3094C199.072 29.8675 198.391 30.2835 197.596 30.5573C196.807 30.8277 195.911 30.9629 194.922 30.9629ZM194.902 24.4875C195.49 24.4875 196.057 24.3869 196.6 24.1894C197.143 23.9883 197.623 23.7006 198.049 23.3262C198.471 22.9518 198.809 22.5081 199.065 21.995C199.321 21.482 199.449 20.917 199.449 20.293V20.2445C199.449 19.6066 199.321 19.0312 199.065 18.5181C198.809 18.0051 198.471 17.5683 198.049 17.2009C197.627 16.8334 197.143 16.5491 196.6 16.3516C196.057 16.1505 195.493 16.0534 194.902 16.0534C194.31 16.0534 193.757 16.154 193.238 16.3516C192.719 16.5526 192.266 16.8299 191.876 17.1905C191.485 17.551 191.177 17.9843 190.956 18.4973C190.731 19.0104 190.62 19.5858 190.62 20.2237V20.2722C190.62 20.8962 190.734 21.4681 190.966 21.9846C191.198 22.5046 191.509 22.9483 191.9 23.3158C192.291 23.6832 192.744 23.971 193.262 24.179C193.781 24.3835 194.328 24.4875 194.902 24.4875Z" fill="white"/>
<path d="M114.403 23.0454C113.964 23.4267 113.674 23.6416 113.162 23.9675C112.474 24.4043 111.785 24.5915 111.094 24.5291C110.402 24.4667 109.762 24.1304 109.171 23.5238L116.707 18.7365C116.627 18.5805 116.547 18.4315 116.468 18.2928C116.388 18.1541 116.312 18.0224 116.236 17.9011C115.749 17.1315 115.178 16.459 114.521 15.8836C113.864 15.3081 113.144 14.8852 112.359 14.6183C111.574 14.3479 110.751 14.2647 109.887 14.3583C109.022 14.4554 108.137 14.7881 107.238 15.3601C106.442 15.8662 105.813 16.4729 105.346 17.1835C104.883 17.8941 104.575 18.6568 104.426 19.4714C104.281 20.286 104.291 21.118 104.464 21.9742C104.637 22.8305 104.966 23.6416 105.453 24.4112L105.477 24.4528C106.007 25.2882 106.629 25.9607 107.342 26.4599C108.057 26.9626 108.822 27.3023 109.645 27.4825C110.464 27.6628 111.308 27.6663 112.173 27.4929C113.037 27.3231 113.874 26.9799 114.68 26.4668C115.13 26.1826 115.52 25.8741 115.866 25.5482L114.403 23.0454ZM107.629 19.4506C107.76 18.7816 108.151 18.2373 108.797 17.8283C109.444 17.4192 110.105 17.2875 110.776 17.4227C111.45 17.5579 112.01 18.0571 112.508 18.5285L107.881 21.4681C107.591 20.8441 107.497 20.1196 107.629 19.4506Z" fill="white"/>
<path d="M100.387 12.885C101.416 12.885 102.251 12.0485 102.251 11.0166C102.251 9.98464 101.416 9.1481 100.387 9.1481C99.3575 9.1481 98.5229 9.98464 98.5229 11.0166C98.5229 12.0485 99.3575 12.885 100.387 12.885Z" fill="white"/>
<path d="M171.423 11.6647C172.096 11.6647 172.641 11.1184 172.641 10.4445C172.641 9.77061 172.096 9.2243 171.423 9.2243C170.751 9.2243 170.206 9.77061 170.206 10.4445C170.206 11.1184 170.751 11.6647 171.423 11.6647Z" fill="white"/>
</svg>
