<svg width="747" height="124" viewBox="0 0 747 124" fill="none" xmlns="http://www.w3.org/2000/svg">
<path fill-rule="evenodd" clip-rule="evenodd" d="M14 0C6.26801 0 0 6.26801 0 14V94C0 101.732 6.26799 108 14 108H57.6077L66.268 123C67.0378 124.333 68.9622 124.333 69.732 123L78.3923 108H733C740.732 108 747 101.732 747 94V14C747 6.26801 740.732 0 733 0H14Z" fill="#222222"/>
<path d="M79.22 52.34L79.54 54.48L90.06 53.94C89.92 55.22 89.76 56.5 89.38 58.02L91.98 58.28C92.84 54.26 92.84 51.78 92.84 49.06V46.92H79.74V49.02H90.24V49.06C90.24 50 90.26 50.96 90.2 51.98L79.22 52.34ZM77.88 59.38V61.54H94.52V59.38H77.88ZM105.518 54.74V53.58H110.878V51.6H100.538V50.54H110.498V45.64H97.8984V47.64H107.898V48.68H97.9384V53.58H102.878V54.74H95.8584V56.8H112.538V54.74H105.518ZM97.9584 63.52H110.598V57.78H97.9584V63.52ZM100.558 59.86H108.018V61.44H100.558V59.86ZM126.288 54.22C130.208 54.22 132.948 52.62 132.948 50.06C132.948 47.58 130.208 45.92 126.288 45.92C122.368 45.92 119.628 47.58 119.628 50.06C119.628 52.62 122.368 54.22 126.288 54.22ZM126.288 48.02C128.708 48.02 130.228 48.7 130.228 50.06C130.228 51.42 128.708 52.12 126.288 52.12C123.868 52.12 122.328 51.42 122.328 50.06C122.328 48.7 123.868 48.02 126.288 48.02ZM134.668 55.6H117.988V57.72H124.948V63.74H127.588V57.72H134.668V55.6ZM137.467 53.74C140.927 53.5 143.107 52.54 144.307 51.08C145.447 52.54 147.567 53.5 151.107 53.74L151.887 51.78C147.867 51.52 146.127 50.34 145.807 49.06H151.027V47.02H145.607V45.36H142.967V47.02H137.567V49.06H142.787C142.467 50.34 140.707 51.52 136.687 51.78L137.467 53.74ZM135.987 54.44V56.54H152.627V54.44H135.987ZM137.827 59.98H147.987V63.74H150.627V57.9H137.827V59.98ZM172.616 49.58V45.32H169.976V56.2H172.616V51.76H175.056V49.58H172.616ZM168.976 53.46C166.076 52.54 164.836 50.4 164.836 48.18V46.3H162.156V47.96C162.156 50.46 160.936 52.92 157.836 53.94L159.216 56.02C161.316 55.3 162.736 53.9 163.536 52.06C164.316 53.66 165.656 54.86 167.596 55.5L168.976 53.46ZM166.596 56.62C162.736 56.62 160.356 57.94 160.356 60.16C160.356 62.4 162.736 63.72 166.596 63.72C170.436 63.72 172.816 62.4 172.816 60.16C172.816 57.94 170.436 56.62 166.596 56.62ZM166.596 61.68C164.176 61.68 162.976 61.18 162.976 60.16C162.976 59.16 164.176 58.66 166.596 58.66C168.936 58.66 170.196 59.14 170.196 60.16C170.196 61.2 168.936 61.68 166.596 61.68ZM190.615 50.32V45.3H187.975V58.62H190.615V52.48H193.055V50.32H190.615ZM186.535 52.94C184.555 53.36 182.715 53.5 179.435 53.5V48.86H185.055V46.76H176.815V55.62H178.355C182.455 55.62 184.555 55.5 186.795 55.02L186.535 52.94ZM181.375 57.22H178.735V63.4H191.275V61.3H181.375V57.22ZM215.344 52.24H212.664V45.3H210.024V63.72H212.664V54.42H215.344V52.24ZM203.184 46.58C200.384 46.58 198.344 49.1 198.344 53.14C198.344 57.2 200.384 59.74 203.184 59.74C205.964 59.74 208.024 57.2 208.024 53.14C208.024 49.1 205.964 46.58 203.184 46.58ZM203.184 57.34C201.804 57.34 200.884 55.88 200.884 53.14C200.884 50.4 201.804 48.96 203.184 48.96C204.544 48.96 205.484 50.4 205.484 53.14C205.484 55.88 204.544 57.34 203.184 57.34ZM228.863 45.28V63.76H231.503V45.28H228.863ZM221.603 46.58C218.823 46.58 216.763 49.1 216.763 53.14C216.763 57.2 218.823 59.74 221.603 59.74C224.383 59.74 226.443 57.2 226.443 53.14C226.443 49.1 224.383 46.58 221.603 46.58ZM221.603 48.96C222.963 48.96 223.903 50.4 223.903 53.14C223.903 55.88 222.963 57.34 221.603 57.34C220.243 57.34 219.303 55.88 219.303 53.14C219.303 50.4 220.243 48.96 221.603 48.96ZM235.641 49.66L235.941 51.84L246.241 51.38C246.161 52.08 246.041 52.8 245.881 53.62L248.481 53.8C248.981 51.4 249.001 49.56 249.001 47.74V46H236.121V48.1H246.381C246.381 48.56 246.381 48.98 246.361 49.44L235.641 49.66ZM243.061 54.74V52.5H240.421V54.74H234.281V56.82H250.861V54.74H243.061ZM238.841 57.98H236.201V63.46H249.301V61.34H238.841V57.98ZM264.671 54.22C268.591 54.22 271.331 52.62 271.331 50.06C271.331 47.58 268.591 45.92 264.671 45.92C260.751 45.92 258.011 47.58 258.011 50.06C258.011 52.62 260.751 54.22 264.671 54.22ZM264.671 48.02C267.091 48.02 268.611 48.7 268.611 50.06C268.611 51.42 267.091 52.12 264.671 52.12C262.251 52.12 260.711 51.42 260.711 50.06C260.711 48.7 262.251 48.02 264.671 48.02ZM273.051 55.6H256.371V57.72H263.331V63.74H265.971V57.72H273.051V55.6ZM288.769 52.38C289.089 50.52 289.089 49.02 289.089 47.58V45.94H276.429V47.98H286.489C286.489 48.32 286.489 48.66 286.469 49.04L275.909 49.28L276.189 51.3L286.349 50.86C286.289 51.36 286.209 51.84 286.129 52.38H274.409V54.46H290.989V52.38H288.769ZM278.829 60.42H289.209V55.56H276.189V57.54H286.589V58.54H276.229V63.52H289.809V61.52H278.829V60.42ZM305.008 45.32V56.62H307.668V45.32H305.008ZM303.488 53.22C301.088 53.64 298.948 53.74 295.908 53.74V51.98H301.768V46.32H293.288V48.42H299.168V50.02H293.308V55.86H294.928C298.608 55.86 301.048 55.76 303.788 55.34L303.488 53.22ZM295.108 59.54H305.008V63.76H307.668V57.44H295.108V59.54ZM314.617 55.58H321.717V53.48H314.617V55.58ZM336.872 53.62V52.4C340.372 52.14 342.272 50.92 342.272 48.98C342.272 46.8 339.672 45.48 335.592 45.48C331.512 45.48 328.932 46.8 328.932 48.98C328.932 50.9 330.952 52.12 334.252 52.38V53.62H327.272V55.7H343.912V53.62H336.872ZM331.652 48.98C331.652 47.96 333.012 47.48 335.592 47.48C338.172 47.48 339.552 47.96 339.552 48.98C339.552 49.96 338.172 50.46 335.592 50.46C333.012 50.46 331.652 49.96 331.652 48.98ZM339.292 57.98H331.832V56.54H329.212V63.5H341.932V56.54H339.292V57.98ZM339.292 61.44H331.832V59.96H339.292V61.44ZM358.03 58.94H360.67V45.3H358.03V47.7H354.97V49.8H358.03V51.24H354.97V53.36H358.03V58.94ZM356.27 54.62C353.33 53.5 352.15 51.04 352.15 48.48V46.34H349.47V48.48C349.47 51.12 348.21 53.76 345.17 54.82L346.55 56.88C348.65 56.1 350.05 54.64 350.83 52.72C351.61 54.48 352.89 55.88 354.81 56.66L356.27 54.62ZM351.15 61.3V57.7H348.51V63.4H361.07V61.3H351.15ZM367.52 55.58H374.62V53.48H367.52V55.58ZM389.834 59.56V56.5H395.074V54.42H384.814V52.5H394.514V50.46H384.814V48.66H394.934V46.56H382.134V56.5H387.194V59.56H380.174V61.7H396.854V59.56H389.834ZM412.553 51.78C412.893 49.94 412.893 48.48 412.893 47.28V46.02H400.233V48.12H410.293C410.273 49.14 410.213 50.26 409.913 51.78H398.173V53.86H414.853V51.78H412.553ZM402.693 60.3H412.853V55.12H400.033V57.16H410.213V58.36H400.053V63.58H413.313V61.54H402.693V60.3ZM428.991 45.28V51.76H425.691V46.74H423.091V51.18H419.471V46.74H416.851V59.42H425.691V53.88H428.991V63.76H431.631V45.28H428.991ZM423.091 57.32H419.471V53.24H423.091V57.32ZM449.049 52.16H438.849V50.96H448.489V49.04H438.849V47.88H448.929V45.88H436.229V54.14H449.049V52.16ZM434.149 55.24V57.32H450.829V55.24H434.149ZM438.789 58.26H436.149V63.4H449.149V61.3H438.789V58.26ZM463.139 62.28C467.059 62.28 469.759 59.34 469.759 54.54C469.759 49.74 467.059 46.92 463.139 46.92C459.219 46.92 456.519 49.72 456.519 54.54C456.519 59.34 459.219 62.28 463.139 62.28ZM463.139 59.72C460.939 59.72 459.539 57.68 459.539 54.54C459.539 51.32 460.879 49.46 463.139 49.46C465.399 49.46 466.739 51.32 466.739 54.54C466.739 57.68 465.339 59.72 463.139 59.72ZM472.25 62H475.05V56.06C475.05 54.36 474.83 52.5 474.69 50.9H474.79L476.29 54.08L480.57 62H483.57V47.2H480.77V53.1C480.77 54.78 480.99 56.74 481.15 58.28H481.05L479.57 55.08L475.27 47.2H472.25V62ZM485.29 64.64H487.25L492.21 44.9H490.25L485.29 64.64ZM500.064 62.28C503.984 62.28 506.684 59.34 506.684 54.54C506.684 49.74 503.984 46.92 500.064 46.92C496.144 46.92 493.444 49.72 493.444 54.54C493.444 59.34 496.144 62.28 500.064 62.28ZM500.064 59.72C497.864 59.72 496.464 57.68 496.464 54.54C496.464 51.32 497.804 49.46 500.064 49.46C502.324 49.46 503.664 51.32 503.664 54.54C503.664 57.68 502.264 59.72 500.064 59.72ZM509.175 62H512.135V56H517.395V53.52H512.135V49.66H518.295V47.2H509.175V62ZM520.474 62H523.434V56H528.694V53.52H523.434V49.66H529.594V47.2H520.474V62ZM539.953 59.92V56.54H545.693V55.22H534.653V52.32H545.273V46.86H532.993V48.2H543.673V51H533.033V56.54H538.293V59.92H530.993V61.26H547.293V59.92H539.953ZM562.064 54.04H566.204V58.82H567.864V45.56H566.204V48.84H562.064V46.74H560.444V49.9H555.604V46.74H553.984V55.76H562.064V54.04ZM566.204 50.16V52.7H562.064V50.16H566.204ZM560.444 54.44H555.604V51.2H560.444V54.44ZM557.964 61.74V57.52H556.324V63.08H568.284V61.74H557.964ZM584.203 50.18V52.58H579.503V53.92H584.203V56.28H585.863V45.56H584.203V48.84H580.143C580.283 48.22 580.343 47.56 580.343 46.9H572.243V48.22H578.563C578.243 51.36 575.643 53.7 571.323 54.98L571.983 56.28C575.923 55.14 578.503 53.12 579.723 50.18H584.203ZM580.003 56.48C576.383 56.48 574.063 57.78 574.063 59.94C574.063 62.1 576.383 63.4 580.003 63.4C583.623 63.4 585.943 62.1 585.943 59.94C585.943 57.78 583.623 56.48 580.003 56.48ZM580.003 62.12C577.363 62.12 575.683 61.3 575.683 59.94C575.683 58.58 577.343 57.78 580.003 57.78C582.663 57.78 584.323 58.58 584.323 59.94C584.323 61.3 582.643 62.12 580.003 62.12ZM599.721 47.18H595.241V45.36H593.601V47.18H589.141V48.44H599.721V47.18ZM603.001 49.8V45.48H601.361V55.4H603.001V51.16H605.661V49.8H603.001ZM598.721 52.18C598.721 50.34 597.061 49.24 594.421 49.24C591.861 49.24 590.141 50.34 590.141 52.18C590.141 54.02 591.861 55.12 594.421 55.12C597.061 55.12 598.721 54.02 598.721 52.18ZM591.701 52.18C591.701 51.06 592.741 50.46 594.421 50.46C596.101 50.46 597.161 51.06 597.161 52.18C597.161 53.3 596.101 53.9 594.421 53.9C592.741 53.9 591.701 53.3 591.701 52.18ZM593.261 60.3H603.001V56.32H591.601V57.54H601.381V59.1H591.661V63.28H603.661V62.02H593.261V60.3ZM626.592 52.38C623.332 51.9 620.132 49.68 620.132 47.18V46.18H618.412V47.18C618.412 49.76 615.272 51.9 611.992 52.38L612.652 53.7C615.432 53.22 618.152 51.68 619.272 49.5C620.452 51.68 623.112 53.22 625.912 53.7L626.592 52.38ZM627.372 55.64H611.172V57H618.412V63.5H620.052V57H627.392L627.372 55.64ZM647.943 45.56H646.303V55.8H647.943V45.56ZM638.303 54.96C641.023 54.96 643.003 53.26 643.003 50.78C643.003 48.3 641.023 46.6 638.303 46.6C635.603 46.6 633.643 48.3 633.643 50.78C633.643 53.26 635.603 54.96 638.303 54.96ZM638.303 47.96C640.083 47.96 641.403 49.12 641.403 50.78C641.403 52.44 640.083 53.6 638.303 53.6C636.523 53.6 635.243 52.44 635.243 50.78C635.243 49.12 636.523 47.96 638.303 47.96ZM645.943 56.58H644.343V57.54C644.343 58.94 643.483 60.72 641.763 61.8C640.083 60.82 639.283 59.14 639.283 57.54V56.58H637.703V57.54C637.703 59.28 636.363 61.2 634.103 62L634.923 63.24C636.603 62.6 637.823 61.36 638.463 59.92C639.003 61.44 640.043 62.7 641.803 63.4C643.483 62.68 644.563 61.32 645.123 59.86C645.743 61.38 646.963 62.6 648.723 63.24L649.543 62C647.243 61.26 645.943 59.4 645.943 57.54V56.58ZM666.522 51.14C663.322 50.76 660.182 48.72 660.182 46.54V45.74H658.502V46.54C658.502 48.82 655.362 50.76 652.142 51.14L652.742 52.46C655.562 52.04 658.202 50.62 659.342 48.62C660.482 50.62 663.142 52.04 665.922 52.46L666.522 51.14ZM651.202 53.72V55.04H667.442V53.72H651.202ZM663.702 58.38H654.882V56.28H653.262V63.24H665.322V56.28H663.702V58.38ZM663.702 61.92H654.882V59.64H663.702V61.92ZM682.28 45.54V63.46H683.92V45.54H682.28ZM671.98 47.28H670.34V58.84H671.82C674.7 58.84 677.48 58.64 680.62 58L680.44 56.6C677.46 57.22 674.72 57.44 671.98 57.44V47.28ZM703.979 52.62H701.019V45.54H699.379V63.52H701.019V53.98H703.979V52.62ZM689.619 48.62H696.319V47.26H687.979V59.04H689.399C692.759 59.04 695.159 58.94 697.879 58.4L697.699 57.04C695.119 57.52 692.819 57.64 689.619 57.64V48.62ZM704.997 62.28H706.817V60.4H704.997V62.28Z" fill="white"/>
<g clip-path="url(#clip0)">
<path d="M66.6546 53.9625L66.6522 53.8885C66.6383 53.4517 66.2984 53.0949 65.8622 53.06C63.3478 52.8585 61.405 50.8038 61.3418 48.2798C61.331 47.8357 60.9826 47.4729 60.5392 47.444C58.1373 47.2882 56.215 45.4381 55.9677 43.0452C55.9238 42.6205 55.5742 42.2926 55.1476 42.2757C54.9864 42.2691 54.8245 42.2637 54.6615 42.2637C48.0443 42.2637 42.6612 47.6468 42.6612 54.264C42.6612 60.8811 48.0443 66.2643 54.6615 66.2643C61.2787 66.2643 66.6618 60.8811 66.6618 54.264C66.6612 54.1629 66.6582 54.0624 66.6546 53.9625ZM56.0399 54.2291C56.0399 54.9962 55.4184 55.6177 54.6513 55.6177C53.8841 55.6177 53.2626 54.9962 53.2626 54.2291C53.2626 53.4619 53.8841 52.8404 54.6513 52.8404C55.4184 52.8404 56.0399 53.4619 56.0399 54.2291ZM52.9467 49.1341C52.9467 49.9013 52.3252 50.5228 51.5581 50.5228C50.791 50.5228 50.1694 49.9013 50.1694 49.1341C50.1694 48.367 50.791 47.7455 51.5581 47.7455C52.3252 47.7449 52.9467 48.367 52.9467 49.1341ZM48.7338 53.6978C49.501 53.6978 50.1225 54.3193 50.1225 55.0865C50.1225 55.8536 49.501 56.4751 48.7338 56.4751C47.9667 56.4751 47.3452 55.8536 47.3452 55.0865C47.3452 54.3199 47.9667 53.6978 48.7338 53.6978ZM52.9467 60.2373C52.9467 59.4702 53.5683 58.8487 54.3354 58.8487C55.1025 58.8487 55.724 59.4702 55.724 60.2373C55.724 61.0045 55.1025 61.626 54.3354 61.626C53.5683 61.626 52.9467 61.0045 52.9467 60.2373ZM60.0603 55.4162C60.8274 55.4162 61.4489 56.0377 61.4489 56.8048C61.4489 57.572 60.8274 58.1935 60.0603 58.1935C59.2931 58.1935 58.6716 57.572 58.6716 56.8048C58.6716 56.0377 59.2931 55.4162 60.0603 55.4162Z" fill="white"/>
</g>
<defs>
<clipPath id="clip0">
<rect width="24" height="24" fill="white" transform="translate(42.6612 42.2637)"/>
</clipPath>
</defs>
</svg>
