<svg width="202" height="38" viewBox="0 0 202 38" fill="none" xmlns="http://www.w3.org/2000/svg">
<path d="M15.68 37.999C15.5624 37.999 15.4414 37.9782 15.3272 37.9401L1.11719 33.1563C0.664151 33.0038 0.363281 32.5809 0.363281 32.1025C0.363281 31.6241 0.671068 31.2012 1.12064 31.0521L5.23945 29.6863C5.82044 29.4957 6.44639 29.8077 6.6366 30.39C6.8268 30.9724 6.5121 31.5998 5.93457 31.7905L4.96625 32.1129L15.6731 35.7181L26.0929 32.0956L25.0416 31.7246C24.464 31.5201 24.1631 30.8892 24.3672 30.3103C24.5712 29.7314 25.2006 29.4298 25.7782 29.6343L29.814 31.0591C30.2566 31.2151 30.554 31.638 30.554 32.106C30.554 32.5739 30.2532 32.9969 29.8105 33.1494L16.0431 37.9366C15.9255 37.9782 15.8045 37.999 15.68 37.999Z" fill="black"/>
<path d="M15.4585 30.9907C6.93385 30.9907 0 24.0403 0 15.4953C0 6.95037 6.93385 0 15.4585 0C15.6695 0 15.877 0.00693304 16.0844 0.0173326C16.6343 0.0381317 17.0839 0.464513 17.1392 1.01222C17.4574 4.10089 19.9335 6.48932 23.0287 6.69038C23.5993 6.72851 24.0489 7.19649 24.0627 7.76847C24.1457 11.027 26.646 13.6823 29.8864 13.9423C30.4467 13.9874 30.8859 14.4485 30.9032 15.0135L30.9066 15.1106C30.9101 15.2388 30.9135 15.3705 30.9135 15.4988C30.917 24.0403 23.9832 30.9907 15.4585 30.9907ZM15.0988 2.22204C7.96096 2.4127 2.2133 8.29538 2.2133 15.4953C2.2133 22.8166 8.15462 28.7721 15.4585 28.7721C22.5895 28.7721 28.4236 23.0939 28.6933 16.0084C25.1382 15.2908 22.42 12.3963 21.9289 8.78762C18.5329 8.18098 15.8424 5.59496 15.0988 2.22204Z" fill="black"/>
<path d="M11.3983 10.6625C12.3857 10.6625 13.1862 9.86012 13.1862 8.87032C13.1862 7.88052 12.3857 7.07812 11.3983 7.07812C10.4108 7.07812 9.61035 7.88052 9.61035 8.87032C9.61035 9.86012 10.4108 10.6625 11.3983 10.6625Z" fill="black"/>
<path d="M15.4452 17.2406C16.4326 17.2406 17.2331 16.4382 17.2331 15.4484C17.2331 14.4586 16.4326 13.6562 15.4452 13.6562C14.4577 13.6562 13.6572 14.4586 13.6572 15.4484C13.6572 16.4382 14.4577 17.2406 15.4452 17.2406Z" fill="black"/>
<path d="M15.6659 24.9399C16.6533 24.9399 17.4538 24.1375 17.4538 23.1477C17.4538 22.1579 16.6533 21.3555 15.6659 21.3555C14.6784 21.3555 13.8779 22.1579 13.8779 23.1477C13.8779 24.1375 14.6784 24.9399 15.6659 24.9399Z" fill="black"/>
<path d="M7.82309 18.35C8.81053 18.35 9.61102 17.5476 9.61102 16.5578C9.61102 15.568 8.81053 14.7656 7.82309 14.7656C6.83564 14.7656 6.03516 15.568 6.03516 16.5578C6.03516 17.5476 6.83564 18.35 7.82309 18.35Z" fill="black"/>
<path d="M22.4129 20.5688C23.4004 20.5688 24.2009 19.7664 24.2009 18.7766C24.2009 17.7868 23.4004 16.9844 22.4129 16.9844C21.4255 16.9844 20.625 17.7868 20.625 18.7766C20.625 19.7664 21.4255 20.5688 22.4129 20.5688Z" fill="black"/>
<path d="M47.2364 27.3651C46.2785 27.3651 45.3897 27.1883 44.5701 26.8382C43.7505 26.4881 43.0416 26.0132 42.4536 25.4135C41.8623 24.8138 41.4023 24.1101 41.0669 23.3024C40.7314 22.4947 40.5654 21.635 40.5654 20.7233V20.6748C40.5654 19.7631 40.7314 18.8999 41.0669 18.0853C41.4023 17.2706 41.8623 16.56 42.4536 15.9499C43.045 15.3432 43.7505 14.8649 44.5701 14.5113C45.3932 14.1612 46.2958 13.9844 47.2849 13.9844C48.4953 13.9844 49.5016 14.175 50.3005 14.5598C51.0959 14.9446 51.7979 15.4715 52.4066 16.1405L50.1829 18.5394C49.7679 18.1061 49.3425 17.7629 48.9033 17.5098C48.4641 17.2533 47.9177 17.125 47.2641 17.125C46.8007 17.125 46.3822 17.2186 46.0088 17.4024C45.6353 17.5861 45.3067 17.8391 45.0266 18.1581C44.7465 18.477 44.5321 18.8479 44.3799 19.2743C44.2277 19.6972 44.1517 20.1478 44.1517 20.6297V20.6782C44.1517 21.1739 44.2277 21.6384 44.3799 22.0683C44.5321 22.4981 44.7499 22.876 45.037 23.1949C45.324 23.5138 45.6664 23.7669 46.0641 23.9506C46.4618 24.1343 46.9079 24.2279 47.4024 24.2279C48.0076 24.2279 48.5402 24.1031 48.9932 23.857C49.4463 23.6109 49.8993 23.2781 50.3454 22.8621L52.4757 25.0218C51.8532 25.7081 51.1443 26.2732 50.3454 26.7134C49.5466 27.1467 48.5125 27.3651 47.2364 27.3651Z" fill="black"/>
<path d="M60.6543 27.3647C59.6652 27.3647 58.7488 27.1914 57.905 26.8482C57.0577 26.505 56.3315 26.0336 55.7159 25.4338C55.1003 24.8341 54.6196 24.1304 54.2669 23.3227C53.9176 22.515 53.7412 21.6484 53.7412 20.7194V20.6709C53.7412 19.7453 53.9176 18.8752 54.2669 18.0675C54.6196 17.2598 55.1038 16.5526 55.7263 15.946C56.3488 15.3393 57.0819 14.861 57.9257 14.5074C58.7696 14.1573 59.6964 13.9805 60.6993 13.9805C61.6883 13.9805 62.6048 14.1538 63.4486 14.497C64.2924 14.8402 65.0221 15.3116 65.6377 15.9113C66.2498 16.511 66.734 17.2147 67.0833 18.0224C67.436 18.8301 67.6089 19.6968 67.6089 20.6258V20.6743C67.6089 21.5999 67.4325 22.47 67.0833 23.2777C66.734 24.0854 66.2463 24.7925 65.6239 25.3992C65.0014 26.0058 64.2682 26.4877 63.4244 26.8378C62.584 27.1914 61.6607 27.3647 60.6543 27.3647ZM60.7027 24.224C61.2284 24.224 61.6953 24.1339 62.0999 23.9467C62.508 23.763 62.8538 23.5099 63.1408 23.191C63.4279 22.8721 63.6457 22.5012 63.7979 22.0748C63.9501 21.6519 64.0261 21.2012 64.0261 20.7194V20.6709C64.0261 20.1925 63.9466 19.7384 63.7875 19.3154C63.6284 18.8925 63.3967 18.5181 63.0924 18.1888C62.7881 17.8595 62.4319 17.5995 62.0169 17.4089C61.6019 17.2182 61.1488 17.1211 60.6543 17.1211C60.1287 17.1211 59.6618 17.2147 59.2537 17.3985C58.8491 17.5822 58.4998 17.8352 58.2128 18.1542C57.9257 18.4731 57.7079 18.844 57.5557 19.2704C57.4035 19.6933 57.3274 20.1439 57.3274 20.6258V20.6743C57.3274 21.1527 57.407 21.6068 57.5661 22.0297C57.7252 22.4526 57.9569 22.8305 58.2612 23.1563C58.5655 23.4857 58.9183 23.7457 59.3263 23.9363C59.7344 24.127 60.1909 24.224 60.7027 24.224Z" fill="black"/>
<path d="M76.0576 27.3647C75.0686 27.3647 74.1521 27.1914 73.3083 26.8482C72.461 26.505 71.7348 26.0336 71.1192 25.4338C70.5036 24.8341 70.0229 24.1304 69.6702 23.3227C69.3209 22.515 69.1445 21.6484 69.1445 20.7194V20.6709C69.1445 19.7453 69.3209 18.8752 69.6702 18.0675C70.0229 17.2598 70.5071 16.5526 71.1296 15.946C71.7521 15.3393 72.4852 14.861 73.329 14.5074C74.1729 14.1573 75.0997 13.9805 76.1026 13.9805C77.0917 13.9805 78.0081 14.1538 78.8519 14.497C79.6957 14.8402 80.4254 15.3116 81.041 15.9113C81.6531 16.511 82.1373 17.2147 82.4866 18.0224C82.8393 18.8301 83.0122 19.6968 83.0122 20.6258V20.6743C83.0122 21.5999 82.8359 22.47 82.4866 23.2777C82.1373 24.0854 81.6497 24.7925 81.0272 25.3992C80.4047 26.0058 79.6715 26.4877 78.8277 26.8378C77.9874 27.1914 77.064 27.3647 76.0576 27.3647ZM76.106 24.224C76.6317 24.224 77.0986 24.1339 77.5032 23.9467C77.9113 23.763 78.2571 23.5099 78.5441 23.191C78.8312 22.8721 79.049 22.5012 79.2012 22.0748C79.3534 21.6519 79.4294 21.2012 79.4294 20.7194V20.6709C79.4294 20.1925 79.3499 19.7384 79.1908 19.3154C79.0318 18.8925 78.8 18.5181 78.4957 18.1888C78.1914 17.8595 77.8352 17.5995 77.4202 17.4089C77.0052 17.2182 76.5522 17.1211 76.0576 17.1211C75.532 17.1211 75.0651 17.2147 74.657 17.3985C74.2524 17.5822 73.9031 17.8352 73.6161 18.1542C73.329 18.4731 73.1112 18.844 72.959 19.2704C72.8068 19.6933 72.7308 20.1439 72.7308 20.6258V20.6743C72.7308 21.1527 72.8103 21.6068 72.9694 22.0297C73.1285 22.4526 73.3602 22.8305 73.6645 23.1563C73.9688 23.4857 74.3216 23.7457 74.7296 23.9363C75.1377 24.127 75.5942 24.224 76.106 24.224Z" fill="black"/>
<path d="M92.5707 26.9515L88.6145 21.4744V26.9515H85.1182V9.60156H88.6145V19.9872L92.3218 14.5587H96.6481L92.1488 20.7568L96.7726 26.9549H92.5707V26.9515Z" fill="black"/>
<path d="M98.8721 14.5703H102.202V27.0775H98.8721V14.5703Z" fill="black"/>
<path d="M119.144 14.6853H120.987V17.1778C121.243 16.8103 121.527 16.4567 121.835 16.1239C122.146 15.7877 122.492 15.4965 122.876 15.2504C123.259 15.0043 123.685 14.8032 124.155 14.6507C124.625 14.4981 125.148 14.4219 125.722 14.4219C126.455 14.4219 127.178 14.5675 127.887 14.8517C128.596 15.1394 129.232 15.5589 129.789 16.1101C130.345 16.6612 130.792 17.3338 131.127 18.1241C131.462 18.9145 131.628 19.8227 131.628 20.8453V20.8939C131.628 21.8992 131.462 22.8039 131.127 23.6012C130.792 24.402 130.349 25.0745 129.799 25.6291C129.249 26.1803 128.62 26.6032 127.911 26.8979C127.202 27.1925 126.472 27.3416 125.722 27.3416C125.148 27.3416 124.622 27.2688 124.141 27.1267C123.664 26.9811 123.232 26.7904 122.851 26.5512C122.467 26.312 122.122 26.0312 121.81 25.7123C121.499 25.3934 121.223 25.0572 120.984 24.7036V30.9121H119.141V14.6853H119.144ZM125.39 25.6881C125.981 25.6881 126.541 25.5806 127.077 25.3657C127.613 25.1508 128.073 24.8388 128.464 24.4297C128.855 24.0207 129.166 23.5215 129.398 22.9322C129.63 22.3429 129.744 21.6704 129.744 20.9181V20.8696C129.744 20.1347 129.63 19.4726 129.398 18.8798C129.166 18.287 128.851 17.7844 128.454 17.3684C128.056 16.9524 127.593 16.6335 127.067 16.4082C126.541 16.1863 125.981 16.0719 125.393 16.0719C124.819 16.0719 124.266 16.1863 123.73 16.4186C123.194 16.6508 122.716 16.9767 122.295 17.4031C121.873 17.826 121.537 18.3286 121.292 18.9145C121.043 19.4969 120.922 20.1416 120.922 20.8453V20.8939C120.922 21.6149 121.046 22.2701 121.292 22.8594C121.537 23.4522 121.873 23.9548 122.295 24.3708C122.716 24.7868 123.194 25.1092 123.73 25.3414C124.259 25.5737 124.816 25.6881 125.39 25.6881Z" fill="black"/>
<path d="M146.489 14.6853V27.0781H144.857V24.6481C143.819 26.3085 142.062 27.3762 139.863 27.3762C136.377 27.3762 133.482 24.551 133.482 20.8834C133.482 17.2158 136.377 14.3906 139.863 14.3906C142.062 14.3906 143.819 15.4548 144.857 17.1188V14.6887H146.489V14.6853ZM144.857 20.8834C144.857 18.131 142.73 15.9748 139.984 15.9748C137.238 15.9748 135.111 18.131 135.111 20.8834C135.111 23.6358 137.238 25.792 139.984 25.792C142.73 25.792 144.857 23.6324 144.857 20.8834Z" fill="black"/>
<path d="M149.781 14.6862H151.625V17.9239C151.846 17.4109 152.126 16.9394 152.461 16.5096C152.797 16.0797 153.181 15.7053 153.61 15.3933C154.038 15.0814 154.509 14.8456 155.021 14.6862C155.532 14.5267 156.082 14.4539 156.67 14.4713V16.461H156.528C155.857 16.461 155.225 16.5824 154.626 16.8216C154.028 17.0607 153.506 17.4213 153.06 17.8996C152.614 18.378 152.261 18.9743 152.008 19.6849C151.756 20.3955 151.625 21.2171 151.625 22.1427V27.0824H149.781V14.6862Z" fill="black"/>
<path d="M166.578 27.0766L160.332 21.0414V27.0766H158.683V9.54297H160.332V20.0881L166.28 14.5521H168.528L162.082 20.563L168.777 27.0766H166.578Z" fill="black"/>
<path d="M172.343 14.5703H170.503V27.0775H172.343V14.5703Z" fill="black"/>
<path d="M175.67 14.6858H177.513V16.8454C177.928 16.1729 178.471 15.6044 179.139 15.133C179.809 14.6615 180.677 14.4258 181.746 14.4258C182.497 14.4258 183.161 14.5471 183.745 14.7863C184.326 15.0255 184.821 15.3652 185.229 15.8055C185.637 16.2457 185.948 16.7691 186.162 17.3758C186.377 17.9824 186.484 18.6549 186.484 19.3898V27.0855H184.641V19.8543C184.641 18.7069 184.347 17.7952 183.755 17.1262C183.164 16.4572 182.32 16.1209 181.22 16.1209C180.695 16.1209 180.204 16.211 179.751 16.3948C179.298 16.5785 178.903 16.8419 178.568 17.1851C178.232 17.5283 177.973 17.9408 177.79 18.4192C177.607 18.8976 177.517 19.4245 177.517 19.9965V27.0786H175.673V14.6858H175.67Z" fill="black"/>
<path d="M194.922 30.9637C193.885 30.9637 192.896 30.8181 191.955 30.5338C191.015 30.2461 190.129 29.8128 189.299 29.2408L190.136 27.8022C190.855 28.3152 191.602 28.7035 192.384 28.9773C193.166 29.2477 194.002 29.3829 194.895 29.3829C196.264 29.3829 197.357 29.012 198.17 28.2667C198.982 27.5249 199.39 26.426 199.39 24.9701V23.5072C198.848 24.2282 198.187 24.8418 197.405 25.3514C196.624 25.8644 195.666 26.1175 194.535 26.1175C193.785 26.1175 193.065 25.9823 192.37 25.7119C191.675 25.4415 191.059 25.0532 190.517 24.5471C189.974 24.0445 189.538 23.4379 189.213 22.7237C188.888 22.0096 188.722 21.2089 188.722 20.3145V20.266C188.722 19.3543 188.884 18.5397 189.213 17.8221C189.541 17.1045 189.974 16.4909 190.517 15.9883C191.059 15.4857 191.682 15.0974 192.381 14.827C193.083 14.5566 193.798 14.418 194.535 14.418C195.109 14.418 195.638 14.4873 196.126 14.6225C196.613 14.7577 197.049 14.9379 197.44 15.1633C197.831 15.3886 198.184 15.652 198.505 15.9536C198.823 16.2587 199.11 16.5776 199.366 16.9139V14.6849H201.206V24.9215C201.206 25.8817 201.071 26.7241 200.801 27.4521C200.528 28.18 200.141 28.7971 199.629 29.3101C199.072 29.8682 198.391 30.2842 197.596 30.5581C196.807 30.8285 195.911 30.9637 194.922 30.9637ZM194.902 24.4882C195.49 24.4882 196.057 24.3877 196.6 24.1901C197.143 23.989 197.623 23.7013 198.049 23.3269C198.471 22.9525 198.809 22.5088 199.065 21.9958C199.321 21.4827 199.449 20.9177 199.449 20.2937V20.2452C199.449 19.6073 199.321 19.0319 199.065 18.5189C198.809 18.0058 198.471 17.569 198.049 17.2016C197.627 16.8341 197.143 16.5499 196.6 16.3523C196.057 16.1512 195.493 16.0542 194.902 16.0542C194.31 16.0542 193.757 16.1547 193.238 16.3523C192.719 16.5533 192.266 16.8307 191.876 17.1912C191.485 17.5517 191.177 17.985 190.956 18.4981C190.731 19.0111 190.62 19.5865 190.62 20.2244V20.2729C190.62 20.8969 190.734 21.4689 190.966 21.9854C191.198 22.5054 191.509 22.9491 191.9 23.3165C192.291 23.684 192.744 23.9717 193.262 24.1797C193.781 24.3842 194.328 24.4882 194.902 24.4882Z" fill="black"/>
<path d="M114.403 23.0444C113.964 23.4257 113.674 23.6406 113.162 23.9665C112.474 24.4033 111.785 24.5904 111.094 24.5281C110.402 24.4657 109.762 24.1294 109.171 23.5228L116.707 18.7355C116.627 18.5795 116.547 18.4304 116.468 18.2918C116.388 18.1531 116.312 18.0214 116.236 17.9001C115.749 17.1305 115.178 16.458 114.521 15.8826C113.864 15.3071 113.144 14.8842 112.359 14.6173C111.574 14.3469 110.751 14.2637 109.887 14.3573C109.022 14.4543 108.137 14.7871 107.238 15.3591C106.442 15.8652 105.813 16.4719 105.346 17.1825C104.883 17.8931 104.575 18.6558 104.426 19.4704C104.281 20.285 104.291 21.117 104.464 21.9732C104.637 22.8295 104.966 23.6406 105.453 24.4102L105.477 24.4518C106.007 25.2872 106.629 25.9597 107.342 26.4589C108.057 26.9615 108.822 27.3013 109.645 27.4815C110.464 27.6618 111.308 27.6652 112.173 27.4919C113.037 27.3221 113.874 26.9789 114.68 26.4658C115.13 26.1816 115.52 25.8731 115.866 25.5472L114.403 23.0444ZM107.629 19.4496C107.76 18.7806 108.151 18.2363 108.797 17.8273C109.444 17.4182 110.105 17.2865 110.776 17.4217C111.45 17.5569 112.01 18.0561 112.508 18.5275L107.881 21.4671C107.591 20.8431 107.497 20.1186 107.629 19.4496Z" fill="black"/>
<path d="M100.386 12.8853C101.416 12.8853 102.25 12.0488 102.25 11.0169C102.25 9.98497 101.416 9.14844 100.386 9.14844C99.357 9.14844 98.5225 9.98497 98.5225 11.0169C98.5225 12.0488 99.357 12.8853 100.386 12.8853Z" fill="black"/>
<path d="M171.423 11.667C172.096 11.667 172.641 11.1207 172.641 10.4468C172.641 9.77287 172.096 9.22656 171.423 9.22656C170.751 9.22656 170.206 9.77287 170.206 10.4468C170.206 11.1207 170.751 11.667 171.423 11.667Z" fill="black"/>
</svg>
