<svg width="30" height="30" viewBox="0 0 30 30" fill="none" xmlns="http://www.w3.org/2000/svg">
<path d="M8.57916 21.6926L11.2204 20.9307L27.1234 4.83728C27.2488 4.70874 27.3186 4.53601 27.3178 4.35641C27.3169 4.1768 27.2455 4.00474 27.1189 3.87738L26.1664 2.91447C26.1049 2.85123 26.0314 2.80089 25.9502 2.76637C25.869 2.73186 25.7817 2.71387 25.6934 2.71345C25.6052 2.71303 25.5178 2.73019 25.4362 2.76393C25.3547 2.79767 25.2807 2.84732 25.2185 2.90997L9.35759 18.9614L8.57766 21.6911L8.57916 21.6926ZM28.0518 1.00666L29.0042 1.97106C30.318 3.30143 30.33 5.44772 29.0282 6.7646L12.6408 23.35L6.99532 24.9758C6.65065 25.0723 6.28178 25.0281 5.96966 24.8529C5.65754 24.6777 5.42767 24.3859 5.33048 24.0414C5.25816 23.7937 5.25712 23.5307 5.32748 23.2825L6.96982 17.523L23.3137 0.98116C23.6245 0.668228 23.9945 0.420308 24.4021 0.25186C24.8097 0.0834123 25.2467 -0.00219115 25.6878 4.26151e-05C26.1288 0.00227638 26.565 0.0923025 26.9708 0.26487C27.3767 0.437438 27.7442 0.689093 28.0518 1.00516V1.00666ZM10.7749 2.73599C11.5189 2.73599 12.1218 3.34643 12.1218 4.09936C12.123 4.27734 12.0891 4.45381 12.022 4.61868C11.955 4.78356 11.8561 4.93359 11.731 5.06021C11.6059 5.18683 11.4571 5.28755 11.293 5.35662C11.129 5.42569 10.9529 5.46174 10.7749 5.46272H5.38747C3.89962 5.46272 2.69374 6.6836 2.69374 8.18796V24.5454C2.69374 26.0512 3.89962 27.2721 5.38747 27.2721H21.5499C23.0378 27.2721 24.2451 26.0512 24.2451 24.5454V19.0934C24.2451 18.3405 24.8481 17.73 25.592 17.73C26.3359 17.73 26.9389 18.3405 26.9389 19.0949V24.5454C26.9389 27.5571 24.5256 29.9988 21.5499 29.9988H5.38747C2.41176 29.9988 0 27.5571 0 24.5454V8.18796C0 5.17775 2.41176 2.73599 5.38747 2.73599H10.7749Z" fill="#222222"/>
</svg>
